<?xml version="1.0" encoding="utf-8" standalone="no"?>
<!DOCTYPE svg PUBLIC "-//W3C//DTD SVG 1.1//EN"
  "http://www.w3.org/Graphics/SVG/1.1/DTD/svg11.dtd">
<svg xmlns:xlink="http://www.w3.org/1999/xlink" width="553.78pt" height="233.14225pt" viewBox="0 0 553.78 233.14225" xmlns="http://www.w3.org/2000/svg" version="1.1">
 <metadata>
  <rdf:RDF xmlns:dc="http://purl.org/dc/elements/1.1/" xmlns:cc="http://creativecommons.org/ns#" xmlns:rdf="http://www.w3.org/1999/02/22-rdf-syntax-ns#">
   <cc:Work>
    <dc:type rdf:resource="http://purl.org/dc/dcmitype/StillImage"/>
    <dc:date>2026-10-03T11:23:41.140610</dc:date>
    <dc:format>image/svg+xml</dc:format>
    <dc:creator>
     <cc:Agent>
      <dc:title>Matplotlib v3.8.2, https://matplotlib.org/</dc:title>
     </cc:Agent>
    </dc:creator>
   </cc:Work>
  </rdf:RDF>
 </metadata>
 <defs>
  <style type="text/css">*{stroke-linejoin: round; stroke-linecap: butt}</style>
 </defs>
 <g id="figure_1">
  <g id="patch_1">
   <path d="M 0 233.14225
L 553.78 233.14225
L 553.78 0
L 0 0
z
" style="fill: #ffffff"/>
  </g>
  <g id="axes_1">
   <g id="patch_2">
    <path d="M 38.26 196.001
L 548.02 196.001
L 548.02 19.925
L 38.26 19.925
z
" style="fill: #ffffff"/>
   </g>
   <g id="matplotlib.axis_1">
    <g id="xtick_1">
     <g id="line2d_1">
      <path d="M 61.430909 196.001
L 61.430909 19.925
" clip-path="url(#p3bcf00a151)" style="fill: none; stroke: #cbd5e1; stroke-opacity: 0.3; stroke-width: 0.6; stroke-linecap: square"/>
     </g>
     <g id="line2d_2">
      <defs>
       <path id="m398d74a273" d="M 0 0
L 0 3.5
" style="stroke: #000000; stroke-width: 0.8"/>
      </defs>
      <g>
       <use xlink:href="#m398d74a273" x="61.430909" y="196.001" style="stroke: #000000; stroke-width: 0.8"/>
      </g>
     </g>
     <g id="text_1">
      <text style="font: 10px 'Latin Modern Roman'; text-anchor: middle" x="61.430909" y="209.941625" transform="rotate(-0 61.430909 209.941625)">0</text>
     </g>
    </g>
    <g id="xtick_2">
     <g id="line2d_3">
      <path d="M 118.305993 196.001
L 118.305993 19.925
" clip-path="url(#p3bcf00a151)" style="fill: none; stroke: #cbd5e1; stroke-opacity: 0.3; stroke-width: 0.6; stroke-linecap: square"/>
     </g>
     <g id="line2d_4">
      <g>
       <use xlink:href="#m398d74a273" x="118.305993" y="196.001" style="stroke: #000000; stroke-width: 0.8"/>
      </g>
     </g>
     <g id="text_2">
      <text style="font: 10px 'Latin Modern Roman'; text-anchor: middle" x="118.305993" y="209.941625" transform="rotate(-0 118.305993 209.941625)">1</text>
     </g>
    </g>
    <g id="xtick_3">
     <g id="line2d_5">
      <path d="M 175.181076 196.001
L 175.181076 19.925
" clip-path="url(#p3bcf00a151)" style="fill: none; stroke: #cbd5e1; stroke-opacity: 0.3; stroke-width: 0.6; stroke-linecap: square"/>
     </g>
     <g id="line2d_6">
      <g>
       <use xlink:href="#m398d74a273" x="175.181076" y="196.001" style="stroke: #000000; stroke-width: 0.8"/>
      </g>
     </g>
     <g id="text_3">
      <text style="font: 10px 'Latin Modern Roman'; text-anchor: middle" x="175.181076" y="209.941625" transform="rotate(-0 175.181076 209.941625)">2</text>
     </g>
    </g>
    <g id="xtick_4">
     <g id="line2d_7">
      <path d="M 232.05616 196.001
L 232.05616 19.925
" clip-path="url(#p3bcf00a151)" style="fill: none; stroke: #cbd5e1; stroke-opacity: 0.3; stroke-width: 0.6; stroke-linecap: square"/>
     </g>
     <g id="line2d_8">
      <g>
       <use xlink:href="#m398d74a273" x="232.05616" y="196.001" style="stroke: #000000; stroke-width: 0.8"/>
      </g>
     </g>
     <g id="text_4">
      <text style="font: 10px 'Latin Modern Roman'; text-anchor: middle" x="232.05616" y="209.941625" transform="rotate(-0 232.05616 209.941625)">3</text>
     </g>
    </g>
    <g id="xtick_5">
     <g id="line2d_9">
      <path d="M 288.931244 196.001
L 288.931244 19.925
" clip-path="url(#p3bcf00a151)" style="fill: none; stroke: #cbd5e1; stroke-opacity: 0.3; stroke-width: 0.6; stroke-linecap: square"/>
     </g>
     <g id="line2d_10">
      <g>
       <use xlink:href="#m398d74a273" x="288.931244" y="196.001" style="stroke: #000000; stroke-width: 0.8"/>
      </g>
     </g>
     <g id="text_5">
      <text style="font: 10px 'Latin Modern Roman'; text-anchor: middle" x="288.931244" y="209.941625" transform="rotate(-0 288.931244 209.941625)">4</text>
     </g>
    </g>
    <g id="xtick_6">
     <g id="line2d_11">
      <path d="M 345.806327 196.001
L 345.806327 19.925
" clip-path="url(#p3bcf00a151)" style="fill: none; stroke: #cbd5e1; stroke-opacity: 0.3; stroke-width: 0.6; stroke-linecap: square"/>
     </g>
     <g id="line2d_12">
      <g>
       <use xlink:href="#m398d74a273" x="345.806327" y="196.001" style="stroke: #000000; stroke-width: 0.8"/>
      </g>
     </g>
     <g id="text_6">
      <text style="font: 10px 'Latin Modern Roman'; text-anchor: middle" x="345.806327" y="209.941625" transform="rotate(-0 345.806327 209.941625)">5</text>
     </g>
    </g>
    <g id="xtick_7">
     <g id="line2d_13">
      <path d="M 402.681411 196.001
L 402.681411 19.925
" clip-path="url(#p3bcf00a151)" style="fill: none; stroke: #cbd5e1; stroke-opacity: 0.3; stroke-width: 0.6; stroke-linecap: square"/>
     </g>
     <g id="line2d_14">
      <g>
       <use xlink:href="#m398d74a273" x="402.681411" y="196.001" style="stroke: #000000; stroke-width: 0.8"/>
      </g>
     </g>
     <g id="text_7">
      <text style="font: 10px 'Latin Modern Roman'; text-anchor: middle" x="402.681411" y="209.941625" transform="rotate(-0 402.681411 209.941625)">6</text>
     </g>
    </g>
    <g id="xtick_8">
     <g id="line2d_15">
      <path d="M 459.556495 196.001
L 459.556495 19.925
" clip-path="url(#p3bcf00a151)" style="fill: none; stroke: #cbd5e1; stroke-opacity: 0.3; stroke-width: 0.6; stroke-linecap: square"/>
     </g>
     <g id="line2d_16">
      <g>
       <use xlink:href="#m398d74a273" x="459.556495" y="196.001" style="stroke: #000000; stroke-width: 0.8"/>
      </g>
     </g>
     <g id="text_8">
      <text style="font: 10px 'Latin Modern Roman'; text-anchor: middle" x="459.556495" y="209.941625" transform="rotate(-0 459.556495 209.941625)">7</text>
     </g>
    </g>
    <g id="xtick_9">
     <g id="line2d_17">
      <path d="M 516.431579 196.001
L 516.431579 19.925
" clip-path="url(#p3bcf00a151)" style="fill: none; stroke: #cbd5e1; stroke-opacity: 0.3; stroke-width: 0.6; stroke-linecap: square"/>
     </g>
     <g id="line2d_18">
      <g>
       <use xlink:href="#m398d74a273" x="516.431579" y="196.001" style="stroke: #000000; stroke-width: 0.8"/>
      </g>
     </g>
     <g id="text_9">
      <text style="font: 10px 'Latin Modern Roman'; text-anchor: middle" x="516.431579" y="209.941625" transform="rotate(-0 516.431579 209.941625)">8</text>
     </g>
    </g>
    <g id="text_10">
     <text style="font: 11.5px 'Latin Modern Roman'; text-anchor: middle" x="293.14" y="224.50725" transform="rotate(-0 293.14 224.50725)">time [s]</text>
    </g>
   </g>
   <g id="matplotlib.axis_2">
    <g id="ytick_1">
     <g id="line2d_19">
      <path d="M 38.26 177.457935
L 548.02 177.457935
" clip-path="url(#p3bcf00a151)" style="fill: none; stroke: #cbd5e1; stroke-opacity: 0.3; stroke-width: 0.6; stroke-linecap: square"/>
     </g>
     <g id="line2d_20">
      <defs>
       <path id="m6443e12afa" d="M 0 0
L -3.5 0
" style="stroke: #000000; stroke-width: 0.8"/>
      </defs>
      <g>
       <use xlink:href="#m6443e12afa" x="38.26" y="177.457935" style="stroke: #000000; stroke-width: 0.8"/>
      </g>
     </g>
     <g id="text_11">
      <text style="font: 10px 'Latin Modern Roman'; text-anchor: end" x="31.26" y="180.928248" transform="rotate(-0 31.26 180.928248)">5</text>
     </g>
    </g>
    <g id="ytick_2">
     <g id="line2d_21">
      <path d="M 38.26 154.381566
L 548.02 154.381566
" clip-path="url(#p3bcf00a151)" style="fill: none; stroke: #cbd5e1; stroke-opacity: 0.3; stroke-width: 0.6; stroke-linecap: square"/>
     </g>
     <g id="line2d_22">
      <g>
       <use xlink:href="#m6443e12afa" x="38.26" y="154.381566" style="stroke: #000000; stroke-width: 0.8"/>
      </g>
     </g>
     <g id="text_12">
      <text style="font: 10px 'Latin Modern Roman'; text-anchor: end" x="31.26" y="157.851879" transform="rotate(-0 31.26 157.851879)">10</text>
     </g>
    </g>
    <g id="ytick_3">
     <g id="line2d_23">
      <path d="M 38.26 131.305197
L 548.02 131.305197
" clip-path="url(#p3bcf00a151)" style="fill: none; stroke: #cbd5e1; stroke-opacity: 0.3; stroke-width: 0.6; stroke-linecap: square"/>
     </g>
     <g id="line2d_24">
      <g>
       <use xlink:href="#m6443e12afa" x="38.26" y="131.305197" style="stroke: #000000; stroke-width: 0.8"/>
      </g>
     </g>
     <g id="text_13">
      <text style="font: 10px 'Latin Modern Roman'; text-anchor: end" x="31.26" y="134.77551" transform="rotate(-0 31.26 134.77551)">15</text>
     </g>
    </g>
    <g id="ytick_4">
     <g id="line2d_25">
      <path d="M 38.26 108.228828
L 548.02 108.228828
" clip-path="url(#p3bcf00a151)" style="fill: none; stroke: #cbd5e1; stroke-opacity: 0.3; stroke-width: 0.6; stroke-linecap: square"/>
     </g>
     <g id="line2d_26">
      <g>
       <use xlink:href="#m6443e12afa" x="38.26" y="108.228828" style="stroke: #000000; stroke-width: 0.8"/>
      </g>
     </g>
     <g id="text_14">
      <text style="font: 10px 'Latin Modern Roman'; text-anchor: end" x="31.26" y="111.699141" transform="rotate(-0 31.26 111.699141)">20</text>
     </g>
    </g>
    <g id="ytick_5">
     <g id="line2d_27">
      <path d="M 38.26 85.152459
L 548.02 85.152459
" clip-path="url(#p3bcf00a151)" style="fill: none; stroke: #cbd5e1; stroke-opacity: 0.3; stroke-width: 0.6; stroke-linecap: square"/>
     </g>
     <g id="line2d_28">
      <g>
       <use xlink:href="#m6443e12afa" x="38.26" y="85.152459" style="stroke: #000000; stroke-width: 0.8"/>
      </g>
     </g>
     <g id="text_15">
      <text style="font: 10px 'Latin Modern Roman'; text-anchor: end" x="31.26" y="88.622772" transform="rotate(-0 31.26 88.622772)">25</text>
     </g>
    </g>
    <g id="ytick_6">
     <g id="line2d_29">
      <path d="M 38.26 62.07609
L 548.02 62.07609
" clip-path="url(#p3bcf00a151)" style="fill: none; stroke: #cbd5e1; stroke-opacity: 0.3; stroke-width: 0.6; stroke-linecap: square"/>
     </g>
     <g id="line2d_30">
      <g>
       <use xlink:href="#m6443e12afa" x="38.26" y="62.07609" style="stroke: #000000; stroke-width: 0.8"/>
      </g>
     </g>
     <g id="text_16">
      <text style="font: 10px 'Latin Modern Roman'; text-anchor: end" x="31.26" y="65.546403" transform="rotate(-0 31.26 65.546403)">30</text>
     </g>
    </g>
    <g id="ytick_7">
     <g id="line2d_31">
      <path d="M 38.26 38.999721
L 548.02 38.999721
" clip-path="url(#p3bcf00a151)" style="fill: none; stroke: #cbd5e1; stroke-opacity: 0.3; stroke-width: 0.6; stroke-linecap: square"/>
     </g>
     <g id="line2d_32">
      <g>
       <use xlink:href="#m6443e12afa" x="38.26" y="38.999721" style="stroke: #000000; stroke-width: 0.8"/>
      </g>
     </g>
     <g id="text_17">
      <text style="font: 10px 'Latin Modern Roman'; text-anchor: end" x="31.26" y="42.470033" transform="rotate(-0 31.26 42.470033)">35</text>
     </g>
    </g>
    <g id="text_18">
     <text style="font: 11.5px 'Latin Modern Roman'; text-anchor: middle" x="14.385" y="107.963" transform="rotate(-90 14.385 107.963)">QP solve time [ms]</text>
    </g>
   </g>
   <g id="line2d_33">
    <path d="M 61.430909 146.436215
L 61.658409 169.915664
L 61.88591 171.211675
L 62.11341 170.850926
L 62.34091 171.317877
L 62.568411 182.009717
L 62.795911 187.039272
L 63.023411 187.059551
L 63.478412 187.490779
L 63.705912 187.127977
L 63.933413 184.982798
L 64.160913 184.581671
L 64.388413 186.585415
L 64.615914 187.076503
L 64.843414 187.208121
L 65.070914 187.118271
L 65.298415 187.573568
L 65.525915 187.779501
L 65.753415 187.780161
L 65.980916 187.939213
L 66.435916 185.757578
L 66.663417 170.486777
L 66.890917 184.799659
L 67.118417 186.064355
L 67.345918 183.375423
L 67.573418 186.71083
L 67.800918 187.177799
L 68.028419 169.979923
L 68.255919 170.895025
L 68.71092 170.359847
L 68.93842 186.752732
L 69.16592 180.372278
L 69.393421 186.804963
L 69.620921 171.705933
L 70.075922 169.55624
L 70.303422 170.09488
L 70.530922 169.890469
L 70.758423 170.574901
L 70.985923 170.38885
L 71.213423 169.959722
L 71.440924 170.478127
L 71.668424 174.88289
L 71.895924 171.204267
L 72.123425 186.686494
L 72.350925 186.198313
L 72.578425 171.210931
L 72.805926 187.141329
L 73.033426 181.787778
L 73.260926 171.290213
L 73.488427 171.346542
L 73.715927 170.188122
L 73.943428 185.17543
L 74.170928 186.25383
L 74.398428 183.52961
L 74.625929 183.268154
L 74.853429 187.22925
L 75.30843 171.051949
L 75.53593 172.361039
L 75.76343 171.211204
L 75.990931 171.491868
L 76.218431 175.137574
L 76.445931 186.881083
L 76.673432 184.686908
L 76.900932 185.757162
L 77.128432 182.199063
L 77.355933 181.790219
L 77.583433 182.900709
L 77.810933 186.714587
L 78.038434 184.39268
L 78.493434 175.027205
L 78.720935 185.32281
L 78.948435 187.231784
L 79.175935 187.294782
L 79.403436 172.651128
L 79.630936 184.234237
L 79.858436 186.764686
L 80.085937 186.495772
L 80.313437 187.095306
L 80.540937 185.791214
L 80.768438 187.167636
L 80.995938 187.324468
L 81.223438 187.152955
L 81.678439 176.007032
L 81.905939 186.994111
L 82.13344 187.35221
L 82.58844 181.306197
L 82.815941 184.243703
L 83.043441 170.406955
L 83.270941 171.729998
L 83.498442 187.171642
L 83.953442 171.781149
L 84.180943 171.244125
L 84.408443 177.316717
L 84.635943 169.268049
L 84.863444 187.204101
L 85.090944 187.164992
L 85.318444 187.799523
L 85.545945 171.564535
L 85.773445 180.967297
L 86.000945 169.979263
L 86.228446 170.845406
L 86.455946 184.289801
L 86.683446 185.55595
L 86.910947 186.087201
L 87.138447 178.123384
L 87.365947 187.457738
L 87.820948 187.993567
L 88.048448 186.294394
L 88.275949 175.974323
L 88.503449 185.769134
L 88.730949 187.190043
L 88.95845 186.203893
L 89.18595 187.196726
L 89.41345 187.657829
L 89.640951 187.263191
L 89.868451 186.080605
L 90.095951 187.267238
L 90.323452 187.338429
L 90.550952 187.047067
L 90.778452 170.43407
L 91.233453 171.458832
L 91.460953 170.813593
L 91.688454 171.162023
L 91.915954 185.649234
L 92.143454 182.801439
L 92.370955 185.078943
L 92.598455 184.895828
L 92.825955 184.239974
L 93.280956 186.934694
L 93.508456 186.600128
L 93.963457 187.207157
L 94.190957 183.864665
L 94.418458 171.901903
L 94.645958 182.623465
L 94.873458 185.099523
L 95.100959 184.836554
L 95.328459 187.225512
L 95.555959 187.482629
L 95.78346 186.084464
L 96.01096 186.306246
L 96.23846 187.776492
L 96.693461 185.432007
L 96.920961 187.42701
L 97.148462 187.309505
L 97.375962 180.62105
L 97.603462 177.211725
L 97.830963 187.247328
L 98.058463 182.745567
L 98.285963 186.750268
L 98.740964 170.862068
L 98.968464 183.190193
L 99.423465 186.585396
L 99.650965 186.270478
L 99.878466 186.83295
L 100.333466 185.51493
L 100.560967 186.895141
L 100.788467 187.401174
L 101.015967 185.637017
L 101.243468 186.671817
L 101.698468 187.066386
L 101.925969 187.747139
L 102.380969 187.819521
L 102.60847 186.925279
L 103.06347 171.387244
L 103.290971 175.040173
L 103.518471 186.995053
L 103.973472 187.669875
L 104.200972 187.565823
L 104.428472 184.239434
L 104.655973 187.182691
L 104.883473 184.71202
L 105.110973 186.099966
L 105.338474 186.700714
L 105.565974 185.847959
L 105.793474 184.415152
L 106.020975 186.729204
L 106.248475 187.150454
L 106.475975 186.78005
L 106.703476 185.925154
L 106.930976 186.55104
L 107.158476 186.508843
L 107.385977 187.165882
L 107.613477 170.407994
L 107.840977 187.068117
L 108.068478 183.727056
L 108.295978 185.5965
L 108.523478 183.398365
L 108.978479 187.062256
L 109.205979 181.176646
L 109.43348 180.880018
L 109.66098 173.816175
L 109.88848 184.325163
L 110.115981 184.343066
L 110.343481 184.127449
L 110.570981 186.949583
L 110.798482 186.167922
L 111.025982 182.04669
L 111.253482 170.238207
L 111.480983 171.666575
L 111.708483 170.574356
L 111.935983 171.618649
L 112.163484 174.88337
L 112.390984 186.230232
L 112.618484 184.76852
L 112.845985 186.805633
L 113.300985 187.572382
L 113.528486 171.235162
L 113.755986 183.815914
L 113.983486 187.844005
L 114.210987 186.81838
L 114.665987 180.734198
L 114.893488 170.771539
L 115.120988 169.4499
L 115.348488 176.365223
L 115.575989 27.928455
L 115.803489 169.551833
L 116.030989 170.205882
L 116.48599 170.504652
L 116.71349 170.015779
L 116.940991 168.891789
L 117.168491 182.249291
L 117.395991 186.67509
L 117.623492 187.126616
L 117.850992 186.056647
L 118.078492 185.866018
L 118.305993 187.38178
L 118.533493 187.02873
L 118.760993 174.448735
L 118.988494 179.151709
L 119.215994 168.160633
L 119.443494 169.989698
L 119.898495 171.514663
L 120.353496 170.000299
L 120.580996 168.345262
L 120.808496 170.887969
L 121.035997 169.681591
L 121.263497 171.566201
L 121.490997 171.408982
L 121.945998 169.393912
L 122.173498 170.46922
L 122.628499 169.688279
L 122.855999 170.989491
L 123.0835 184.431877
L 123.311 184.442834
L 123.5385 185.650194
L 123.766001 186.198599
L 123.993501 185.634465
L 124.221001 184.363179
L 124.448502 187.107915
L 124.676002 186.777239
L 124.903502 187.303814
L 125.131003 187.074181
L 125.358503 185.403762
L 125.586003 187.78989
L 125.813504 187.044307
L 126.041004 186.807539
L 126.268504 179.279316
L 126.496005 187.089075
L 126.723505 185.02068
L 126.951005 176.095354
L 127.178506 184.117222
L 127.406006 187.131526
L 127.633506 187.276127
L 127.861007 187.649406
L 128.088507 186.932566
L 128.316007 184.705886
L 128.543508 186.970966
L 128.771008 184.544813
L 128.998509 179.241946
L 129.226009 187.259346
L 129.453509 187.589911
L 129.90851 185.343565
L 130.13601 187.1151
L 130.363511 185.736172
L 130.591011 185.374528
L 130.818511 183.186418
L 131.046012 187.468321
L 131.501012 186.934985
L 131.728513 185.600663
L 132.183513 187.061826
L 132.638514 187.257085
L 132.866014 187.487392
L 133.093515 183.322808
L 133.321015 187.592749
L 133.548515 187.263883
L 133.776016 186.546983
L 134.003516 183.525465
L 134.231016 187.339024
L 134.458517 187.322188
L 134.686017 187.514677
L 134.913517 187.369379
L 135.141018 184.977569
L 135.368518 186.627303
L 135.823519 187.830814
L 136.051019 187.141297
L 136.278519 185.2326
L 136.50602 186.935391
L 136.73352 187.058623
L 136.96102 185.880178
L 137.416021 185.257614
L 137.643521 186.931685
L 137.871022 185.23481
L 138.098522 186.850636
L 138.326022 186.904612
L 138.553523 185.525891
L 138.781023 186.471741
L 139.008523 186.59021
L 139.236024 187.56197
L 139.463524 187.526386
L 139.691024 187.703234
L 139.918525 187.509873
L 140.146025 186.328339
L 140.373525 183.746103
L 140.601026 185.527211
L 140.828526 175.384759
L 141.056026 170.362653
L 141.283527 171.643563
L 141.738527 186.744614
L 142.193528 169.520126
L 142.421028 169.516074
L 142.876029 172.143231
L 143.103529 170.683664
L 143.33103 170.697598
L 143.55853 185.157495
L 144.013531 180.08434
L 144.241031 170.287697
L 144.468531 170.915683
L 144.923532 171.122332
L 145.151032 167.564828
L 145.606033 169.923159
L 145.833533 169.546036
L 146.061034 170.164815
L 146.288534 174.47753
L 146.743535 187.079014
L 146.971035 181.91323
L 147.198535 183.094855
L 147.653536 187.402327
L 147.881036 187.336181
L 148.108537 186.798774
L 148.336037 187.576965
L 148.563537 187.047777
L 148.791038 186.859548
L 149.018538 178.745537
L 149.246038 186.66758
L 149.473539 187.515568
L 149.701039 184.283238
L 149.928539 187.329295
L 150.38354 184.564663
L 150.61104 185.556107
L 150.838541 187.675358
L 151.066041 177.195442
L 151.293541 186.167769
L 151.521042 187.462944
L 151.748542 173.148525
L 151.976042 169.319537
L 152.203543 169.21987
L 152.431043 170.412208
L 152.658543 187.413866
L 152.886044 184.598881
L 153.113544 186.999626
L 153.341044 187.766934
L 153.568545 187.069949
L 153.796045 181.029451
L 154.023545 186.228469
L 154.251046 186.513098
L 154.478546 186.194653
L 154.706046 185.148975
L 154.933547 185.166098
L 155.161047 183.391705
L 155.388547 186.866513
L 155.616048 187.148723
L 155.843548 183.826547
L 156.071048 185.781231
L 156.298549 185.294827
L 156.526049 173.094909
L 156.753549 187.609373
L 156.98105 187.033766
L 157.43605 187.111007
L 157.891051 184.125045
L 158.118551 184.956745
L 158.346052 186.616812
L 158.573552 170.346482
L 158.801052 171.497148
L 159.028553 170.937292
L 159.256053 172.585263
L 159.711054 186.772024
L 159.938554 171.979698
L 160.166054 170.957087
L 160.393555 186.781098
L 160.621055 185.268497
L 160.848555 186.544713
L 161.303556 187.729684
L 161.531056 186.23884
L 161.758557 187.329983
L 161.986057 187.334358
L 162.213557 186.930083
L 162.668558 185.457008
L 163.123559 187.697262
L 163.351059 187.522643
L 163.578559 186.53509
L 163.80606 186.329692
L 164.03356 187.278929
L 164.488561 186.825395
L 164.716061 187.915518
L 164.943561 186.690403
L 165.171062 187.895469
L 165.626062 186.017418
L 165.853563 186.315551
L 166.081063 187.482638
L 166.308563 187.650246
L 166.536064 187.383262
L 166.991064 187.425413
L 167.218565 182.826283
L 167.446065 185.870993
L 167.673565 184.519706
L 167.901066 186.642307
L 168.128566 186.378766
L 168.356066 187.229079
L 168.583567 170.320225
L 168.811067 170.927235
L 169.038567 186.467873
L 169.266068 187.75925
L 169.493568 186.789521
L 169.721068 182.96896
L 169.948569 184.199041
L 170.176069 186.221417
L 170.403569 186.568878
L 170.63107 186.500964
L 170.85857 186.89744
L 171.08607 186.636926
L 171.313571 186.203085
L 171.541071 186.128623
L 171.768571 185.152169
L 171.996072 187.412139
L 172.223572 187.590058
L 172.451072 186.758017
L 172.678573 187.202892
L 172.906073 186.846349
L 173.133573 182.004068
L 173.361074 183.123581
L 173.588574 186.133026
L 173.816074 184.780076
L 174.043575 185.106538
L 174.271075 187.217943
L 174.498575 185.764704
L 174.726076 185.402202
L 174.953576 186.610886
L 175.181076 185.459703
L 175.408577 186.908152
L 175.636077 186.707138
L 175.863577 186.918799
L 176.318578 183.347357
L 176.546078 186.220397
L 176.773579 186.182635
L 177.001079 181.372108
L 177.228579 185.784374
L 177.68358 186.275435
L 177.91108 187.098398
L 178.138581 187.273926
L 178.366081 187.198609
L 178.593581 185.808036
L 178.821082 185.842305
L 179.048582 186.906426
L 179.276082 186.027973
L 179.503583 184.111157
L 179.731083 186.310474
L 179.958583 184.471509
L 180.186084 186.070895
L 180.413584 185.767224
L 180.641084 186.624811
L 180.868585 186.612165
L 181.096085 185.281097
L 181.323585 182.606278
L 181.778586 186.376504
L 182.006086 186.752995
L 182.233587 186.880728
L 182.461087 184.290004
L 182.688587 183.100343
L 182.916088 186.434625
L 183.143588 186.287937
L 183.371088 181.464588
L 183.598589 169.766909
L 183.826089 185.642547
L 184.05359 166.184608
L 184.28109 167.691393
L 184.50859 179.493502
L 184.736091 180.807507
L 184.963591 168.409419
L 185.191091 185.223189
L 185.646092 183.587342
L 185.873592 185.932381
L 186.101093 167.649823
L 186.556093 168.692612
L 186.783594 168.213316
L 187.238594 184.158279
L 187.466095 184.077313
L 187.921095 185.821952
L 188.148596 182.906815
L 188.376096 184.977721
L 188.831097 184.983679
L 189.058597 185.459053
L 189.286097 183.983199
L 189.513598 186.551612
L 190.196099 185.61335
L 190.423599 185.655211
L 190.651099 186.483436
L 190.8786 186.263269
L 191.3336 186.487557
L 191.561101 182.489913
L 191.788601 186.205947
L 192.016101 183.536057
L 192.243602 183.99356
L 192.471102 181.991777
L 192.698602 185.614786
L 192.926103 183.65929
L 193.153603 184.737787
L 193.381103 185.056698
L 193.608604 186.803662
L 193.836104 185.814978
L 194.063604 185.945452
L 194.291105 181.810665
L 194.518605 186.178389
L 194.746105 186.437292
L 194.973606 184.732876
L 195.201106 185.7984
L 195.428606 185.425416
L 195.883607 181.27035
L 196.111107 185.90145
L 196.338608 185.356686
L 196.566108 185.492084
L 197.021109 182.276138
L 197.248609 184.703338
L 197.476109 184.706191
L 197.70361 183.67632
L 197.93111 184.440868
L 198.15861 181.704656
L 198.386111 183.354617
L 198.613611 179.528172
L 198.841111 185.729665
L 199.068612 169.511242
L 199.296112 187.223232
L 199.523612 186.36132
L 199.751113 187.015443
L 199.978613 181.006038
L 200.206113 186.992602
L 200.433614 186.89389
L 200.661114 175.421792
L 200.888614 186.294509
L 201.116115 186.447224
L 201.343615 186.36084
L 201.571115 184.141106
L 201.798616 185.478238
L 202.026116 185.002302
L 202.253616 186.849893
L 202.708617 182.809152
L 202.936117 186.154408
L 203.163618 186.86511
L 203.391118 186.878286
L 203.618618 185.535154
L 203.846119 186.159605
L 204.073619 186.315315
L 204.301119 187.163745
L 204.75612 186.871963
L 205.211121 186.834039
L 205.438621 184.831597
L 205.666121 184.171867
L 205.893622 186.196993
L 206.121122 186.873962
L 206.576123 186.162609
L 207.031123 183.317058
L 207.258624 186.933642
L 207.486124 187.104504
L 207.713624 186.29264
L 207.941125 184.578071
L 208.168625 184.712191
L 208.396125 187.043204
L 208.623626 187.079872
L 209.078626 184.673588
L 209.306127 182.733415
L 209.533627 185.948562
L 209.761127 185.367495
L 209.988628 186.000558
L 210.216128 182.817584
L 210.671129 186.853945
L 210.898629 185.175139
L 211.126129 186.729236
L 211.35363 186.820628
L 211.58113 185.914552
L 211.80863 186.491037
L 212.263631 182.958816
L 212.491131 186.994619
L 212.718632 186.780761
L 212.946132 185.791934
L 213.401133 187.320157
L 213.628633 186.755478
L 213.856133 186.722701
L 214.083634 185.130717
L 214.311134 185.132808
L 214.538634 184.215855
L 214.766135 186.463216
L 215.448636 185.256073
L 215.676136 183.559503
L 215.903636 184.423408
L 216.131137 186.585447
L 216.586137 186.958869
L 216.813638 186.560603
L 217.268638 184.664473
L 217.496139 186.450963
L 217.723639 186.485702
L 217.951139 186.209616
L 218.17864 187.236847
L 218.40614 187.3843
L 218.63364 186.498043
L 218.861141 185.077868
L 219.088641 184.539099
L 219.316141 186.974842
L 219.543642 184.011477
L 219.771142 187.211615
L 219.998642 187.025634
L 220.681143 187.386912
L 220.908644 186.378826
L 221.136144 184.593536
L 221.363644 184.081841
L 221.591145 186.685562
L 221.818645 186.703483
L 222.046145 185.527262
L 222.273646 185.63591
L 222.728646 182.653524
L 222.956147 185.897102
L 223.183647 186.702144
L 223.411147 185.520833
L 224.093648 186.425532
L 224.321149 185.854891
L 224.776149 187.188423
L 225.00365 187.118045
L 225.45865 183.316038
L 225.686151 182.706582
L 225.913651 185.782186
L 226.141151 184.849956
L 226.368652 184.579728
L 226.596152 186.82708
L 226.823652 186.408008
L 227.051153 187.299292
L 227.278653 187.0051
L 227.506153 185.086337
L 227.733654 185.931172
L 227.961154 185.294629
L 228.188654 185.988771
L 228.416155 185.917068
L 228.643655 187.193269
L 228.871155 185.520205
L 229.098656 185.520228
L 229.326156 185.088414
L 229.553656 186.448295
L 229.781157 186.98717
L 230.008657 186.581086
L 230.236157 186.751638
L 230.463658 185.157707
L 230.691158 185.061082
L 230.918658 186.558346
L 231.146159 186.971422
L 231.373659 187.067951
L 231.82866 186.85317
L 232.05616 182.20408
L 232.28366 182.818294
L 232.511161 183.806591
L 232.738661 186.848965
L 232.966161 187.173068
L 233.193662 185.80865
L 233.421162 186.732956
L 233.648662 186.937934
L 233.876163 187.421352
L 234.103663 185.335552
L 234.331163 179.04229
L 234.558664 168.984477
L 234.786164 169.401167
L 235.013664 181.905319
L 235.241165 182.732247
L 235.696165 186.493755
L 235.923666 185.348055
L 236.378666 187.098629
L 236.606167 186.81742
L 236.833667 187.331391
L 237.061167 186.44463
L 237.288668 186.331999
L 237.516168 186.825653
L 237.743668 186.870869
L 238.198669 184.25904
L 238.42617 187.13802
L 238.65367 187.153537
L 238.88117 187.336666
L 239.108671 187.323739
L 239.336171 187.134162
L 239.563671 183.496504
L 239.791172 187.218575
L 240.018672 187.390346
L 240.246172 187.213498
L 240.473673 187.341535
L 240.928673 184.37648
L 241.156174 187.082221
L 241.383674 185.982065
L 241.611174 186.199444
L 241.838675 184.002481
L 242.066175 184.047337
L 242.293675 184.251697
L 242.521176 186.28113
L 242.748676 185.847396
L 242.976176 187.253462
L 243.203677 186.261644
L 243.431177 186.09093
L 243.658677 186.078782
L 243.886178 186.561665
L 244.113678 186.671439
L 244.341178 186.985037
L 244.568679 187.027184
L 244.796179 183.282628
L 245.25118 182.41791
L 245.47868 186.059449
L 245.70618 184.352388
L 245.933681 186.492754
L 246.161181 187.442854
L 246.843682 185.353898
L 247.071182 186.067816
L 247.298683 185.844557
L 247.526183 186.467351
L 247.753683 184.485211
L 247.981184 186.358828
L 248.208684 187.279003
L 248.436184 186.653919
L 248.663685 186.359599
L 248.891185 184.719972
L 249.118685 185.67681
L 249.346186 183.358766
L 249.573686 186.078058
L 249.801186 185.933115
L 250.028687 186.724238
L 250.256187 182.67277
L 250.483687 186.984313
L 250.711188 187.459368
L 250.938688 186.840723
L 251.166188 187.055296
L 251.393689 186.07875
L 251.621189 183.810583
L 251.848689 185.719885
L 252.07619 186.152733
L 252.30369 182.286246
L 252.53119 187.096284
L 252.758691 186.05428
L 252.986191 186.761834
L 253.213691 174.672401
L 253.441192 186.155673
L 253.668692 186.171429
L 253.896192 186.648441
L 254.123693 185.795446
L 254.351193 172.099482
L 254.578693 170.403194
L 254.806194 169.630916
L 255.261194 170.395053
L 255.488695 170.270666
L 255.716195 169.652446
L 255.943695 169.986255
L 256.171196 169.991627
L 256.398696 168.5296
L 256.626196 170.519799
L 256.853697 182.15069
L 257.081197 186.491365
L 257.308697 182.995147
L 257.536198 186.617523
L 257.763698 187.079817
L 258.218699 186.484257
L 258.446199 187.035279
L 258.673699 177.399806
L 258.9012 174.93645
L 259.1287 186.120689
L 259.3562 186.98597
L 259.583701 185.754481
L 259.811201 183.325698
L 260.038701 186.22558
L 260.266202 184.814973
L 260.721202 185.839277
L 260.948703 185.198433
L 261.176203 185.300412
L 261.403703 185.166218
L 261.631204 184.519877
L 261.858704 186.313907
L 262.086204 186.523676
L 262.313705 186.269061
L 262.541205 184.279269
L 262.768705 184.783312
L 262.996206 184.042602
L 263.223706 186.970906
L 263.451206 186.571209
L 263.678707 186.512752
L 263.906207 186.83685
L 264.133707 186.869434
L 264.361208 184.162341
L 264.588708 187.097904
L 264.816208 187.266915
L 265.043709 186.545091
L 265.271209 187.069308
L 265.498709 184.090079
L 265.72621 185.466243
L 265.95371 184.789579
L 266.18121 186.390964
L 266.408711 184.506428
L 266.863711 184.004028
L 267.091212 186.873223
L 267.318712 186.968473
L 267.773713 185.088446
L 268.228713 186.961352
L 268.456214 186.684786
L 268.683714 186.950132
L 268.911214 186.545839
L 269.138715 187.228567
L 269.366215 187.362493
L 269.821216 184.504536
L 270.048716 184.345258
L 270.276216 186.84837
L 270.503717 186.544823
L 270.731217 182.94977
L 270.958717 186.905581
L 271.186218 187.347623
L 271.413718 187.247102
L 271.641218 187.492099
L 271.868719 187.323826
L 272.096219 187.553478
L 272.323719 186.320535
L 272.55122 183.463648
L 272.77872 185.792345
L 273.00622 185.625341
L 273.233721 185.228473
L 273.688721 186.743428
L 274.143722 183.271579
L 274.371222 184.230928
L 274.598723 186.38699
L 274.826223 185.792548
L 275.053723 187.116504
L 275.281224 184.413984
L 275.736224 187.249276
L 275.963725 187.126436
L 276.191225 171.13249
L 276.418725 169.629933
L 276.646226 168.871528
L 276.873726 170.723411
L 277.101226 169.330032
L 277.328727 170.373564
L 277.556227 170.658202
L 277.783727 186.685211
L 278.011228 186.590145
L 278.238728 177.764667
L 278.466228 180.796583
L 278.693729 186.417266
L 278.921229 170.297712
L 279.148729 184.123845
L 279.37623 183.027528
L 279.83123 186.696283
L 280.058731 186.801419
L 280.286231 186.295465
L 280.513731 175.994132
L 280.741232 186.832078
L 280.968732 183.255989
L 281.196232 186.128632
L 281.423733 187.057687
L 281.651233 186.963309
L 281.878733 186.12356
L 282.106234 184.320058
L 282.333734 171.446338
L 282.561234 172.83896
L 282.788735 187.178044
L 283.471236 187.827334
L 283.698736 177.636316
L 283.926236 186.161105
L 284.153737 185.22624
L 284.381237 187.078008
L 284.608737 185.739426
L 284.836238 169.225118
L 285.063738 171.481723
L 285.291238 172.399992
L 285.746239 170.359538
L 285.973739 171.084307
L 286.20124 169.879794
L 286.42874 170.598605
L 286.65624 170.74496
L 286.883741 171.847225
L 287.111241 170.891601
L 287.338741 171.578764
L 287.566242 171.741448
L 287.793742 170.828431
L 288.021242 171.299508
L 288.248743 170.919089
L 288.476243 172.192692
L 288.703743 171.74868
L 288.931244 171.868622
L 289.158744 169.276089
L 289.386244 170.916556
L 289.841245 172.297538
L 290.068745 171.115469
L 290.296246 170.892293
L 290.523746 171.434112
L 290.751246 171.374981
L 290.978747 171.021742
L 291.206247 166.183135
L 291.433747 184.323663
L 291.661248 187.024706
L 291.888748 187.392455
L 292.116248 172.264345
L 292.343749 187.461767
L 292.571249 187.933075
L 292.798749 177.052788
L 293.02625 171.660215
L 293.25375 185.804358
L 293.708751 186.179326
L 293.936251 170.339646
L 294.163752 187.423539
L 294.391252 172.726334
L 294.618752 171.292054
L 294.846253 182.289079
L 295.073753 183.183289
L 295.528754 187.121723
L 295.756254 185.032347
L 296.211255 187.534707
L 296.438755 187.318177
L 296.893756 187.332434
L 297.121256 187.79739
L 297.576257 186.943768
L 297.803757 180.756568
L 298.031257 185.697136
L 298.713758 187.543735
L 298.941259 187.388371
L 299.168759 186.392612
L 299.396259 187.258437
L 299.62376 175.915756
L 299.85126 187.280969
L 300.07876 186.840085
L 300.306261 186.999433
L 300.533761 183.47826
L 300.761261 186.025384
L 300.988762 183.953356
L 301.216262 185.587722
L 301.443762 183.845119
L 301.671263 185.670132
L 301.898763 186.241872
L 302.126263 187.247051
L 302.353764 186.097183
L 302.581264 187.588475
L 302.808764 187.409947
L 303.263765 187.782197
L 303.718766 185.213377
L 303.946266 185.133145
L 304.173766 186.634037
L 304.628767 187.217749
L 304.856267 186.773607
L 305.083768 187.572216
L 305.311268 187.325783
L 305.538768 186.904686
L 305.766269 187.795918
L 305.993769 185.839697
L 306.221269 185.932667
L 306.44877 186.572783
L 306.67627 183.624906
L 306.90377 187.485878
L 307.131271 187.252922
L 307.358771 187.268955
L 307.586271 186.106774
L 307.813772 182.259076
L 308.041272 187.590732
L 308.268772 187.882676
L 308.723773 187.678985
L 308.951273 186.739754
L 309.178774 187.230902
L 309.406274 184.778794
L 310.088775 187.725521
L 310.316275 186.123237
L 310.543776 185.754158
L 310.771276 183.410974
L 310.998776 186.295488
L 311.226277 187.650749
L 311.453777 185.955019
L 311.681277 187.117856
L 311.908778 186.949394
L 312.136278 186.052655
L 312.363778 187.633303
L 312.591279 187.234235
L 312.818779 187.101555
L 313.046279 186.015332
L 313.27378 186.761926
L 313.50128 186.647887
L 313.72878 187.709151
L 313.956281 187.22175
L 314.183781 184.081652
L 314.411281 186.988162
L 314.638782 184.6527
L 314.866282 183.863571
L 315.093782 186.756637
L 315.321283 187.505446
L 315.548783 184.44942
L 315.776283 183.624795
L 316.003784 186.540167
L 316.458784 187.788164
L 316.686285 187.906648
L 317.368786 185.302401
L 317.596286 184.122815
L 317.823786 187.765226
L 318.051287 186.48632
L 318.278787 187.500236
L 318.506287 187.207475
L 318.733788 187.493258
L 318.961288 187.436314
L 319.188788 184.833697
L 319.416289 187.201923
L 319.643789 185.566851
L 319.871289 187.50739
L 320.09879 187.041685
L 320.32629 184.259146
L 320.55379 186.701369
L 320.781291 186.967324
L 321.008791 183.838842
L 321.236291 183.33796
L 321.463792 186.508007
L 321.691292 186.817401
L 321.918792 186.050865
L 322.146293 186.760394
L 322.373793 186.542091
L 322.601293 186.862867
L 323.056294 186.725668
L 323.511295 187.826014
L 323.738795 186.455933
L 323.966295 186.805397
L 324.193796 183.626766
L 324.421296 187.748551
L 324.648796 187.583006
L 324.876297 186.890166
L 325.103797 183.723567
L 325.331297 187.047196
L 325.558798 187.683605
L 325.786298 187.416482
L 326.013798 185.430221
L 326.241299 187.292825
L 326.468799 187.728424
L 326.696299 187.652286
L 326.9238 187.830343
L 327.1513 185.126504
L 327.3788 184.032264
L 327.606301 183.717724
L 327.833801 186.465639
L 328.061301 186.679788
L 328.288802 187.2133
L 328.516302 184.664192
L 328.743802 187.034984
L 328.971303 186.924227
L 329.198803 187.165093
L 329.426303 187.659938
L 329.653804 187.479499
L 329.881304 179.766772
L 330.336305 187.30633
L 330.563805 186.76367
L 330.791305 187.349307
L 331.018806 187.511248
L 331.246306 185.148472
L 331.473806 187.65272
L 331.701307 187.692753
L 331.928807 183.957806
L 332.156307 186.303218
L 332.611308 170.446001
L 332.838808 169.803328
L 333.066309 170.344377
L 333.293809 170.528471
L 333.521309 170.450731
L 333.97631 171.322783
L 334.20381 169.143603
L 334.431311 170.315222
L 334.658811 176.426906
L 334.886311 170.309061
L 335.113812 172.228055
L 335.341312 181.865028
L 336.023813 169.254102
L 336.251313 171.4228
L 336.478814 170.53034
L 337.161315 171.445544
L 337.388815 170.161598
L 337.616315 183.441467
L 337.843816 186.992782
L 338.071316 177.938007
L 338.298816 184.276864
L 338.526317 180.119656
L 338.753817 186.626025
L 338.981317 182.076144
L 339.208818 185.794191
L 339.436318 182.722218
L 339.663818 170.832096
L 339.891319 170.627976
L 340.118819 171.495255
L 340.346319 171.735222
L 340.57382 171.1737
L 340.80132 171.177558
L 341.02882 171.980468
L 341.256321 170.010863
L 341.483821 170.545474
L 341.711321 165.458828
L 341.938822 172.004412
L 342.166322 187.076318
L 342.393822 184.149598
L 343.076323 187.821699
L 343.303824 186.816995
L 343.531324 187.002566
L 343.758824 186.797196
L 343.986325 184.315794
L 344.441325 187.706257
L 344.896326 186.868751
L 345.123826 185.634064
L 345.351327 187.51824
L 345.578827 180.203972
L 345.806327 186.888961
L 346.033828 168.477033
L 346.261328 182.613459
L 346.488828 180.961616
L 346.943829 186.303242
L 347.171329 182.0032
L 347.39883 186.999308
L 347.62633 183.034049
L 347.85383 169.811359
L 348.081331 169.289685
L 348.308831 171.138029
L 348.536332 170.264371
L 348.763832 183.166637
L 348.991332 182.305468
L 349.218833 186.881895
L 349.446333 186.562241
L 349.673833 183.326071
L 349.901334 185.754661
L 350.128834 186.753927
L 350.356334 185.308549
L 350.583835 186.475036
L 350.811335 186.746003
L 351.038835 183.755684
L 351.266336 185.320705
L 351.493836 185.393156
L 351.721336 186.652101
L 351.948837 185.349975
L 352.176337 186.884798
L 352.403837 187.482998
L 352.631338 187.607559
L 352.858838 187.491402
L 353.086338 187.664387
L 353.313839 183.729091
L 353.541339 186.783405
L 353.99634 187.40488
L 354.22384 183.990542
L 354.45134 184.78273
L 354.678841 183.64879
L 354.906341 186.753295
L 355.361342 185.588437
L 355.588842 184.725173
L 356.043843 187.414973
L 356.271343 187.019375
L 356.498843 187.179797
L 356.726344 187.057525
L 357.181344 183.395494
L 357.408845 187.231456
L 357.636345 187.339615
L 357.863845 186.619198
L 358.091346 183.081993
L 358.318846 187.187957
L 358.773847 185.241193
L 359.001347 186.958024
L 359.228847 184.204552
L 359.683848 186.6406
L 359.911348 187.132394
L 360.138849 187.199181
L 360.366349 187.066266
L 360.82135 183.706416
L 361.04885 185.677489
L 361.27635 183.495134
L 361.503851 183.476728
L 361.731351 186.617191
L 361.958851 186.532011
L 362.186352 184.509488
L 362.413852 187.112816
L 362.641352 187.581811
L 362.868853 187.503554
L 363.096353 187.787754
L 363.323853 187.663658
L 363.551354 186.260943
L 363.778854 181.431672
L 364.006354 187.422053
L 364.461355 187.155553
L 364.688855 187.678261
L 364.916356 185.598388
L 365.143856 186.322778
L 365.371356 185.734307
L 365.598857 186.116448
L 365.826357 184.084998
L 366.053857 187.022158
L 366.281358 186.231128
L 366.736358 186.932548
L 366.963859 186.917396
L 367.191359 183.063804
L 367.418859 186.740063
L 367.64636 187.137388
L 367.87386 186.6995
L 368.10136 184.146049
L 368.328861 187.593741
L 368.556361 187.524088
L 368.783861 187.712132
L 369.238862 187.589943
L 369.466362 187.004426
L 369.921363 183.611868
L 370.148863 186.967089
L 370.376364 185.195903
L 370.603864 169.412299
L 370.831364 186.108925
L 371.058865 187.523852
L 371.286365 186.719738
L 371.513865 187.195457
L 371.741366 170.656369
L 371.968866 186.694769
L 372.196366 187.57018
L 372.423867 186.44283
L 372.651367 182.754779
L 372.878867 181.588075
L 373.106368 182.806558
L 373.561368 186.244212
L 373.788869 183.52996
L 374.016369 187.292465
L 374.243869 184.091072
L 374.47137 184.434942
L 374.69887 187.195886
L 374.92637 186.257933
L 375.153871 185.888804
L 375.381371 187.551969
L 375.836372 186.798926
L 376.063872 182.324188
L 376.291372 187.0814
L 376.518873 187.060566
L 376.746373 187.157713
L 376.973873 186.704613
L 377.428874 186.880225
L 377.656374 187.413284
L 377.883875 185.014966
L 378.111375 187.172875
L 378.338875 186.69248
L 378.566376 186.557977
L 378.793876 186.715565
L 379.248877 184.961715
L 379.476377 186.202725
L 379.703877 185.009109
L 379.931378 187.236491
L 380.613879 185.551944
L 380.841379 186.579752
L 381.068879 186.761432
L 381.29638 187.466175
L 381.52388 187.796892
L 381.75138 186.419071
L 381.978881 187.452306
L 382.206381 187.357555
L 382.661382 183.631967
L 382.888882 186.398773
L 383.116382 186.307243
L 383.343883 186.974925
L 383.571383 186.377151
L 383.798883 187.752244
L 384.026384 186.707733
L 384.253884 187.177693
L 384.481384 185.544874
L 384.708885 186.073341
L 384.936385 187.244702
L 385.163885 187.308984
L 385.391386 185.800407
L 385.618886 185.516997
L 385.846386 183.83413
L 386.073887 187.432728
L 386.301387 187.735938
L 386.528887 185.10045
L 386.756388 185.382199
L 387.438889 187.14186
L 387.666389 186.74844
L 387.893889 186.822123
L 388.12139 187.88551
L 388.34889 186.169957
L 388.57639 185.752436
L 388.803891 184.49428
L 389.031391 186.984479
L 389.258891 186.7644
L 389.486392 187.369947
L 389.713892 187.312122
L 389.941392 174.357713
L 390.168893 171.114717
L 390.396393 171.968921
L 390.623893 170.764025
L 391.078894 171.242463
L 391.306394 172.119347
L 391.533895 171.493077
L 391.761395 186.883935
L 391.988895 178.637032
L 392.216396 186.963198
L 392.443896 184.775784
L 392.671396 185.712943
L 392.898897 187.370219
L 393.126397 187.647555
L 393.353897 187.492293
L 393.581398 182.731629
L 393.808898 187.618322
L 394.036398 187.789969
L 394.263899 187.233007
L 394.491399 184.953038
L 394.718899 185.334186
L 394.9464 187.303639
L 395.1739 186.291316
L 395.4014 185.979706
L 395.856401 184.879808
L 396.311402 187.054567
L 396.538902 187.047561
L 396.766402 185.73362
L 396.993903 186.064166
L 397.221403 186.922307
L 397.676404 187.49611
L 397.903904 186.784748
L 398.131404 187.454448
L 398.358905 184.843624
L 398.813905 172.054839
L 399.041406 172.039516
L 399.268906 184.611758
L 399.496406 187.4098
L 399.723907 185.63543
L 399.951407 186.63178
L 400.178907 179.24496
L 400.406408 186.191667
L 400.633908 185.113475
L 400.861408 184.61503
L 401.088909 186.282413
L 401.316409 186.539317
L 401.543909 186.030899
L 401.77141 186.103885
L 401.99891 185.419227
L 402.22641 187.586283
L 402.908912 187.702653
L 403.136412 185.954267
L 403.363912 187.353913
L 403.818913 184.498513
L 404.046413 187.383645
L 404.273914 187.336781
L 404.501414 187.560604
L 404.728914 184.708032
L 405.183915 187.609046
L 405.638916 187.89972
L 405.866416 186.793956
L 406.093916 186.564835
L 406.321417 185.73062
L 406.548917 187.359987
L 407.003918 186.822192
L 407.231418 184.96334
L 407.458918 185.427452
L 407.913919 187.63766
L 408.141419 179.163796
L 408.36892 186.004163
L 408.59642 187.401806
L 408.82392 187.207355
L 409.051421 187.631831
L 409.278921 187.333901
L 409.506421 187.372061
L 409.733922 179.574482
L 409.961422 176.896317
L 410.188922 170.937933
L 410.416423 171.859027
L 410.643923 170.41284
L 410.871423 172.255003
L 411.098924 169.655566
L 411.326424 170.161834
L 411.553924 171.12668
L 412.008925 171.037263
L 412.236425 171.152124
L 412.463926 171.415568
L 412.691426 171.206543
L 413.146427 171.426132
L 413.373927 171.830241
L 413.601427 171.895594
L 413.828928 172.143203
L 414.056428 172.206451
L 414.283928 171.968266
L 414.511429 171.012018
L 414.966429 172.922893
L 415.42143 173.017825
L 415.64893 171.355394
L 415.876431 171.750716
L 416.103931 171.80543
L 416.331431 171.411156
L 416.558932 171.779321
L 416.786432 171.699006
L 417.013932 171.977496
L 417.241433 172.639742
L 417.468933 172.544769
L 417.923934 172.920041
L 418.151434 172.131476
L 418.606435 173.453525
L 418.833935 172.305596
L 419.061435 169.532504
L 419.288936 171.875286
L 419.516436 172.751805
L 419.743936 173.140984
L 419.971437 172.694414
L 420.426437 172.400837
L 420.653938 172.127511
L 420.881438 172.328243
L 421.108938 171.840898
L 421.336439 171.801377
L 421.563939 173.132953
L 421.791439 172.170641
L 422.01894 172.484489
L 422.24644 172.141611
L 422.47394 172.365835
L 422.701441 171.573364
L 422.928941 172.132223
L 423.383942 171.803071
L 423.611442 172.089467
L 424.293943 170.482364
L 424.521443 170.622918
L 424.748944 172.148506
L 424.976444 171.911309
L 425.203944 183.57081
L 425.431445 187.078663
L 425.658945 183.836175
L 425.886445 185.168332
L 426.113946 187.526257
L 426.341446 187.365493
L 426.568946 187.882528
L 426.796447 187.157759
L 427.023947 185.315744
L 427.251447 186.545792
L 427.478948 185.04665
L 427.706448 186.601951
L 428.161449 184.06818
L 428.388949 186.496815
L 428.616449 183.289722
L 428.84395 187.504999
L 429.07145 182.393509
L 429.29895 185.899871
L 429.753951 187.540384
L 429.981451 185.765313
L 430.208952 185.362695
L 430.436452 185.978908
L 430.663952 185.487183
L 430.891453 186.240585
L 431.118953 183.544171
L 431.346453 187.360938
L 431.573954 187.930019
L 431.801454 181.724221
L 432.028954 186.399036
L 432.256455 185.792617
L 432.483955 185.987705
L 432.711455 187.454355
L 433.166456 184.443669
L 433.393956 184.61269
L 433.621457 186.986265
L 433.848957 185.243335
L 434.076457 185.178905
L 434.303958 185.568028
L 434.531458 187.191105
L 434.986459 187.388149
L 435.213959 187.18319
L 435.441459 185.553952
L 435.66896 185.029338
L 435.89646 187.383746
L 436.12396 187.212838
L 436.351461 183.974637
L 436.578961 187.622296
L 436.806461 187.883881
L 437.261462 187.35629
L 437.488962 183.345262
L 437.943963 186.485748
L 438.171463 185.850963
L 438.398964 184.207252
L 438.626464 184.072523
L 438.853964 184.741428
L 439.081465 187.303321
L 439.308965 186.286714
L 439.536465 187.118045
L 439.763966 185.787471
L 439.991466 186.936402
L 440.218966 187.470767
L 440.446467 186.391702
L 440.673967 186.050698
L 440.901467 184.903392
L 441.128968 185.181199
L 441.356468 187.396009
L 441.811469 187.369665
L 442.038969 183.572098
L 442.266469 187.479795
L 442.49397 187.410455
L 442.72147 185.308082
L 442.94897 187.037647
L 443.176471 185.077803
L 443.403971 180.84149
L 443.631471 187.193569
L 443.858972 186.538856
L 444.086472 187.086938
L 444.541473 184.069038
L 444.768973 186.957955
L 444.996473 186.064627
L 445.223974 186.934016
L 445.451474 186.08397
L 445.678974 187.589652
L 445.906475 187.383654
L 446.133975 187.348943
L 446.361475 187.727986
L 446.588976 187.722184
L 446.816476 183.724937
L 447.043976 187.416861
L 447.498977 185.201585
L 447.726477 184.774294
L 447.953978 185.607812
L 448.181478 169.345904
L 448.408978 184.610761
L 448.863979 187.214555
L 449.091479 187.03233
L 449.31898 187.416353
L 449.77398 183.857026
L 450.001481 182.954348
L 450.228981 186.132467
L 450.456481 186.80794
L 450.683982 184.489024
L 450.911482 171.098365
L 451.138982 183.726917
L 451.366483 183.818484
L 451.593983 187.039405
L 451.821483 185.455947
L 452.048984 185.30247
L 452.276484 183.786574
L 452.731485 187.23969
L 452.958985 187.502982
L 453.186485 187.584312
L 453.413986 184.071004
L 453.641486 187.339131
L 453.868986 180.342006
L 454.096487 180.410797
L 454.323987 182.195694
L 454.551487 184.910421
L 454.778988 185.375031
L 455.006488 182.65034
L 455.233988 185.766107
L 455.461489 187.146831
L 455.688989 187.429719
L 455.916489 185.263988
L 456.14399 187.310207
L 456.37149 187.686734
L 456.59899 187.158747
L 456.826491 183.904231
L 457.053991 187.796426
L 457.281491 187.979435
L 457.508992 187.933393
L 457.963993 184.354161
L 458.191493 187.110245
L 458.418993 185.625502
L 458.646494 187.439393
L 458.873994 185.02842
L 459.101494 170.702633
L 459.328995 182.189316
L 459.783995 187.276067
L 460.011496 187.055582
L 460.238996 187.541529
L 460.466496 187.208408
L 460.693997 186.040872
L 460.921497 170.944109
L 461.148997 184.170043
L 461.603998 186.683083
L 461.831498 184.638166
L 462.286499 186.95886
L 462.513999 187.31934
L 462.7415 187.378577
L 462.969 184.761551
L 463.1965 187.817624
L 463.424001 182.673172
L 463.651501 183.873535
L 463.879001 182.292421
L 464.106502 171.537711
L 464.334002 171.630838
L 464.561502 187.678376
L 464.789003 175.855406
L 465.016503 186.421512
L 465.244003 185.629015
L 465.471504 185.286884
L 465.699004 186.209441
L 465.926504 179.777323
L 466.154005 186.092139
L 466.381505 185.946887
L 466.836506 171.394315
L 467.064006 170.647485
L 467.291506 184.819219
L 467.519007 180.333597
L 467.746507 183.851608
L 467.974007 175.720963
L 468.201508 187.166205
L 468.429008 187.095809
L 468.656508 187.520105
L 468.884009 172.339874
L 469.111509 175.573528
L 469.339009 185.075874
L 469.56651 187.137111
L 469.79401 187.167811
L 470.02151 186.977879
L 470.476511 184.066841
L 470.704011 187.583117
L 470.931512 187.022634
L 471.614013 186.53587
L 471.841513 187.662278
L 472.069013 184.203375
L 472.296514 171.004707
L 472.524014 172.252304
L 472.751514 186.85371
L 472.979015 185.997904
L 473.206515 182.8292
L 473.434015 187.137157
L 473.661516 186.537573
L 473.889016 183.573898
L 474.116516 184.74344
L 474.344017 186.952343
L 474.571517 187.576291
L 474.799017 172.829891
L 475.026518 187.373247
L 475.254018 170.231091
L 475.481518 171.73519
L 475.709019 171.098997
L 475.936519 171.240622
L 476.164019 182.077926
L 476.39152 170.768401
L 476.61902 172.132103
L 476.84652 180.57348
L 477.074021 171.740857
L 477.301521 172.268203
L 477.529021 171.423022
L 477.756522 171.825635
L 477.984022 169.655081
L 478.211522 175.264559
L 478.439023 187.133091
L 478.666523 186.506231
L 478.894023 183.453947
L 479.121524 177.130786
L 479.349024 178.765138
L 479.576524 185.701885
L 479.804025 172.624391
L 480.031525 171.932299
L 480.259025 185.673003
L 480.486526 183.137205
L 480.714026 170.438972
L 480.941526 174.27941
L 481.169027 187.524457
L 481.396527 183.946927
L 481.624027 184.979355
L 481.851528 170.374316
L 482.079028 172.297542
L 482.306528 186.792308
L 482.761529 187.311937
L 483.21653 186.506886
L 483.44403 187.357818
L 483.67153 183.349942
L 483.899031 170.735267
L 484.126531 176.054888
L 484.354031 186.033954
L 484.581532 170.965694
L 484.809032 171.206173
L 485.036532 187.15985
L 485.264033 187.725207
L 485.491533 170.299867
L 485.719033 170.349514
L 485.946534 171.45687
L 486.174034 175.778253
L 486.401534 186.99442
L 486.629035 174.129142
L 486.856535 185.066154
L 487.084035 186.145385
L 487.539036 187.11037
L 487.766536 187.236316
L 487.994037 186.934565
L 488.221537 186.929442
L 488.449037 184.280736
L 488.676538 185.464983
L 488.904038 187.479546
L 489.131538 186.745283
L 489.359039 173.384665
L 489.586539 171.047371
L 489.814039 171.791256
L 490.04154 181.157202
L 490.26904 185.149322
L 490.49654 186.476222
L 490.724041 181.543667
L 490.951541 186.696675
L 491.179041 186.774133
L 491.406542 185.510711
L 491.634042 187.351758
L 491.861542 187.198918
L 492.089043 184.313749
L 492.316543 187.591078
L 492.544043 186.855233
L 492.771544 187.189069
L 493.226544 170.119738
L 493.454045 170.875156
L 493.681545 185.186553
L 493.909045 184.863696
L 494.136546 187.357605
L 494.364046 186.681265
L 494.591546 187.559681
L 494.819047 187.460401
L 495.046547 186.865922
L 495.274047 187.395543
L 495.501548 186.274857
L 495.729048 183.794
L 495.956548 187.036447
L 496.411549 187.624867
L 496.86655 187.972637
L 497.09405 187.531564
L 497.32155 186.824911
L 497.549051 186.582982
L 497.776551 185.618252
L 498.004051 175.781451
L 498.231552 170.794509
L 498.459052 170.831898
L 498.686552 172.783051
L 498.914053 184.721246
L 499.141553 185.123158
L 499.596554 187.512171
L 499.824054 186.495666
L 500.051554 186.846635
L 500.279055 187.840838
L 500.734055 183.360981
L 500.961556 187.129639
L 501.189056 187.752775
L 501.416556 186.960692
L 501.871557 187.032852
L 502.099057 186.765609
L 502.326558 187.085383
L 502.781558 180.489538
L 503.009059 187.246543
L 503.236559 186.610706
L 503.464059 187.633368
L 503.69156 187.670687
L 503.91906 185.442645
L 504.14656 185.594428
L 504.374061 183.673514
L 504.601561 187.754233
L 504.829061 187.70322
L 505.056562 187.164618
L 505.284062 179.686776
L 505.511562 181.573066
L 505.739063 187.09837
L 505.966563 185.366844
L 506.194063 186.554442
L 506.421564 185.515977
L 506.649064 187.67587
L 506.876564 186.842499
L 507.104065 186.436803
L 507.331565 187.576042
L 507.559065 187.50619
L 507.786566 187.804729
L 508.696567 184.708577
L 508.924067 186.936771
L 509.151568 187.458057
L 509.379068 187.243742
L 509.834069 187.83944
L 510.061569 183.735303
L 510.289069 187.457766
L 510.51657 186.654436
L 510.74407 186.600645
L 510.97157 187.106682
L 511.199071 186.232305
L 511.426571 186.631978
L 511.654071 184.991959
L 512.109072 187.269297
L 512.336572 187.355353
L 512.564073 181.84845
L 512.791573 185.593906
L 513.019074 184.66709
L 513.246574 187.416695
L 513.701575 187.030447
L 513.929075 186.127695
L 514.384076 187.082263
L 514.611576 186.531559
L 514.839076 187.055079
L 515.066577 185.83319
L 515.294077 187.712197
L 515.521577 187.746978
L 515.749078 186.203048
L 516.204078 185.145034
L 516.431579 187.649826
L 516.659079 187.227325
L 516.886579 187.174771
L 517.11408 187.528384
L 517.34158 184.289344
L 517.56908 187.636594
L 517.796581 187.997545
L 518.024081 187.698319
L 518.251581 187.813811
L 518.479082 184.509455
L 518.706582 186.501989
L 518.934082 186.879985
L 519.161583 186.553177
L 519.389083 186.622771
L 519.616583 186.964698
L 520.071584 182.942561
L 520.299084 185.998832
L 520.526585 187.056251
L 520.754085 186.933083
L 520.981585 181.909616
L 521.209086 171.175062
L 521.436586 172.318824
L 521.664086 171.476448
L 521.891587 166.146901
L 522.119087 170.887507
L 522.346587 170.927997
L 522.574088 186.634443
L 522.801588 185.050398
L 523.256589 186.963844
L 523.484089 186.749534
L 523.711589 183.953001
L 523.93909 183.573865
L 524.16659 186.821989
L 524.621591 181.06251
L 524.849091 171.26799
L 524.849091 171.26799
" clip-path="url(#p3bcf00a151)" style="fill: none; stroke: #64748b; stroke-width: 1.1; stroke-linecap: square"/>
   </g>
   <g id="line2d_34">
    <path d="M 38.26 182.073209
L 548.02 182.073209
" clip-path="url(#p3bcf00a151)" style="fill: none; stroke-dasharray: 4,3; stroke-dashoffset: 0; stroke: #d55e00"/>
   </g>
   <g id="patch_3">
    <path d="M 38.26 196.001
L 38.26 19.925
" style="fill: none; stroke: #000000; stroke-width: 0.75; stroke-linejoin: miter; stroke-linecap: square"/>
   </g>
   <g id="patch_4">
    <path d="M 38.26 196.001
L 548.02 196.001
" style="fill: none; stroke: #000000; stroke-width: 0.75; stroke-linejoin: miter; stroke-linecap: square"/>
   </g>
   <g id="text_19">
    <g id="patch_5">
     <path d="M 45.4552 51.46804
L 188.109888 51.46804
L 188.109888 23.96804
L 45.4552 23.96804
z
" style="fill: #ffffff; opacity: 0.86; stroke: #cbd5e1; stroke-linejoin: miter"/>
    </g>
    <text style="font: 10px 'Latin Modern Roman'" transform="translate(48.4552 34.46804)">mean 3.77 | p95 6.52 | p99 6.82</text>
    <text style="font: 10px 'Latin Modern Roman'" transform="translate(48.4552 45.96804)">max 37.40 | misses 22.1%</text>
   </g>
   <g id="text_20">
    <text style="font: 13px 'Latin Modern Roman'; text-anchor: start" x="38.26" y="14.925" transform="rotate(-0 38.26 14.925)">QP timing diagnostic</text>
   </g>
   <g id="legend_1">
    <g id="line2d_35">
     <path d="M 449.191875 32.425
L 456.191875 32.425
L 463.191875 32.425
" style="fill: none; stroke: #64748b; stroke-width: 1.1; stroke-linecap: square"/>
    </g>
    <g id="text_21">
     <text style="font: 10px 'Latin Modern Roman'; text-anchor: start" x="471.191875" y="35.925" transform="rotate(-0 471.191875 35.925)">solve time</text>
    </g>
    <g id="line2d_36">
     <path d="M 449.191875 46.365625
L 456.191875 46.365625
L 463.191875 46.365625
" style="fill: none; stroke-dasharray: 4,3; stroke-dashoffset: 0; stroke: #d55e00"/>
    </g>
    <g id="text_22">
     <text style="font: 10px 'Latin Modern Roman'; text-anchor: start" x="471.191875" y="49.865625" transform="rotate(-0 471.191875 49.865625)">deadline 4.0 ms</text>
    </g>
   </g>
  </g>
 </g>
 <defs>
  <clipPath id="p3bcf00a151">
   <rect x="38.26" y="19.925" width="509.76" height="176.076"/>
  </clipPath>
 </defs>
</svg>
