<?xml version="1.0" encoding="utf-8" standalone="no"?>
<!DOCTYPE svg PUBLIC "-//W3C//DTD SVG 1.1//EN"
  "http://www.w3.org/Graphics/SVG/1.1/DTD/svg11.dtd">
<svg xmlns:xlink="http://www.w3.org/1999/xlink" width="462.86375pt" height="223.791339pt" viewBox="0 0 462.86375 223.791339" xmlns="http://www.w3.org/2000/svg" version="1.1">
 <metadata>
  <rdf:RDF xmlns:dc="http://purl.org/dc/elements/1.1/" xmlns:cc="http://creativecommons.org/ns#" xmlns:rdf="http://www.w3.org/1999/02/22-rdf-syntax-ns#">
   <cc:Work>
    <dc:type rdf:resource="http://purl.org/dc/dcmitype/StillImage"/>
    <dc:date>2026-08-15T18:27:42.048183</dc:date>
    <dc:format>image/svg+xml</dc:format>
    <dc:creator>
     <cc:Agent>
      <dc:title>Matplotlib v3.8.2, https://matplotlib.org/</dc:title>
     </cc:Agent>
    </dc:creator>
   </cc:Work>
  </rdf:RDF>
 </metadata>
 <defs>
  <style type="text/css">*{stroke-linejoin: round; stroke-linecap: butt}</style>
 </defs>
 <g id="figure_1">
  <g id="patch_1">
   <path d="M 0 223.791339 
L 462.86375 223.791339 
L 462.86375 0 
L 0 0 
z
" style="fill: #ffffff"/>
  </g>
  <g id="axes_1">
   <g id="patch_2">
    <path d="M 44.18375 190.726339 
L 457.10375 190.726339 
L 457.10375 7.774339 
L 44.18375 7.774339 
z
" style="fill: #ffffff"/>
   </g>
   <g id="matplotlib.axis_1">
    <g id="xtick_1">
     <g id="line2d_1">
      <path d="M 62.952841 190.726339 
L 62.952841 7.774339 
" clip-path="url(#pa56593bf66)" style="fill: none; stroke: #cbd5e1; stroke-opacity: 0.3; stroke-width: 0.6; stroke-linecap: square"/>
     </g>
     <g id="line2d_2">
      <defs>
       <path id="ma4a40ffcad" d="M 0 0 
L 0 3.5 
" style="stroke: #1f2933; stroke-width: 0.8"/>
      </defs>
      <g>
       <use xlink:href="#ma4a40ffcad" x="62.952841" y="190.726339" style="fill: #1f2933; stroke: #1f2933; stroke-width: 0.8"/>
      </g>
     </g>
     <g id="text_1">
      <text style="fill: #1f2933; font: 8px 'Latin Modern Roman'; text-anchor: middle" x="62.952841" y="203.278839" transform="rotate(-0 62.952841 203.278839)">0.0</text>
     </g>
    </g>
    <g id="xtick_2">
     <g id="line2d_3">
      <path d="M 125.600007 190.726339 
L 125.600007 7.774339 
" clip-path="url(#pa56593bf66)" style="fill: none; stroke: #cbd5e1; stroke-opacity: 0.3; stroke-width: 0.6; stroke-linecap: square"/>
     </g>
     <g id="line2d_4">
      <g>
       <use xlink:href="#ma4a40ffcad" x="125.600007" y="190.726339" style="fill: #1f2933; stroke: #1f2933; stroke-width: 0.8"/>
      </g>
     </g>
     <g id="text_2">
      <text style="fill: #1f2933; font: 8px 'Latin Modern Roman'; text-anchor: middle" x="125.600007" y="203.278839" transform="rotate(-0 125.600007 203.278839)">0.5</text>
     </g>
    </g>
    <g id="xtick_3">
     <g id="line2d_5">
      <path d="M 188.247173 190.726339 
L 188.247173 7.774339 
" clip-path="url(#pa56593bf66)" style="fill: none; stroke: #cbd5e1; stroke-opacity: 0.3; stroke-width: 0.6; stroke-linecap: square"/>
     </g>
     <g id="line2d_6">
      <g>
       <use xlink:href="#ma4a40ffcad" x="188.247173" y="190.726339" style="fill: #1f2933; stroke: #1f2933; stroke-width: 0.8"/>
      </g>
     </g>
     <g id="text_3">
      <text style="fill: #1f2933; font: 8px 'Latin Modern Roman'; text-anchor: middle" x="188.247173" y="203.278839" transform="rotate(-0 188.247173 203.278839)">1.0</text>
     </g>
    </g>
    <g id="xtick_4">
     <g id="line2d_7">
      <path d="M 250.894339 190.726339 
L 250.894339 7.774339 
" clip-path="url(#pa56593bf66)" style="fill: none; stroke: #cbd5e1; stroke-opacity: 0.3; stroke-width: 0.6; stroke-linecap: square"/>
     </g>
     <g id="line2d_8">
      <g>
       <use xlink:href="#ma4a40ffcad" x="250.894339" y="190.726339" style="fill: #1f2933; stroke: #1f2933; stroke-width: 0.8"/>
      </g>
     </g>
     <g id="text_4">
      <text style="fill: #1f2933; font: 8px 'Latin Modern Roman'; text-anchor: middle" x="250.894339" y="203.278839" transform="rotate(-0 250.894339 203.278839)">1.5</text>
     </g>
    </g>
    <g id="xtick_5">
     <g id="line2d_9">
      <path d="M 313.541505 190.726339 
L 313.541505 7.774339 
" clip-path="url(#pa56593bf66)" style="fill: none; stroke: #cbd5e1; stroke-opacity: 0.3; stroke-width: 0.6; stroke-linecap: square"/>
     </g>
     <g id="line2d_10">
      <g>
       <use xlink:href="#ma4a40ffcad" x="313.541505" y="190.726339" style="fill: #1f2933; stroke: #1f2933; stroke-width: 0.8"/>
      </g>
     </g>
     <g id="text_5">
      <text style="fill: #1f2933; font: 8px 'Latin Modern Roman'; text-anchor: middle" x="313.541505" y="203.278839" transform="rotate(-0 313.541505 203.278839)">2.0</text>
     </g>
    </g>
    <g id="xtick_6">
     <g id="line2d_11">
      <path d="M 376.188671 190.726339 
L 376.188671 7.774339 
" clip-path="url(#pa56593bf66)" style="fill: none; stroke: #cbd5e1; stroke-opacity: 0.3; stroke-width: 0.6; stroke-linecap: square"/>
     </g>
     <g id="line2d_12">
      <g>
       <use xlink:href="#ma4a40ffcad" x="376.188671" y="190.726339" style="fill: #1f2933; stroke: #1f2933; stroke-width: 0.8"/>
      </g>
     </g>
     <g id="text_6">
      <text style="fill: #1f2933; font: 8px 'Latin Modern Roman'; text-anchor: middle" x="376.188671" y="203.278839" transform="rotate(-0 376.188671 203.278839)">2.5</text>
     </g>
    </g>
    <g id="xtick_7">
     <g id="line2d_13">
      <path d="M 438.835836 190.726339 
L 438.835836 7.774339 
" clip-path="url(#pa56593bf66)" style="fill: none; stroke: #cbd5e1; stroke-opacity: 0.3; stroke-width: 0.6; stroke-linecap: square"/>
     </g>
     <g id="line2d_14">
      <g>
       <use xlink:href="#ma4a40ffcad" x="438.835836" y="190.726339" style="fill: #1f2933; stroke: #1f2933; stroke-width: 0.8"/>
      </g>
     </g>
     <g id="text_7">
      <text style="fill: #1f2933; font: 8px 'Latin Modern Roman'; text-anchor: middle" x="438.835836" y="203.278839" transform="rotate(-0 438.835836 203.278839)">3.0</text>
     </g>
    </g>
    <g id="text_8">
     <text style="fill: #1f2933; font: 9.2px 'Latin Modern Roman'; text-anchor: middle" x="250.64375" y="215.731339" transform="rotate(-0 250.64375 215.731339)">time [s]</text>
    </g>
   </g>
   <g id="matplotlib.axis_2">
    <g id="ytick_1">
     <g id="line2d_15">
      <path d="M 44.18375 188.183875 
L 457.10375 188.183875 
" clip-path="url(#pa56593bf66)" style="fill: none; stroke: #cbd5e1; stroke-opacity: 0.3; stroke-width: 0.6; stroke-linecap: square"/>
     </g>
     <g id="line2d_16">
      <defs>
       <path id="ma240280016" d="M 0 0 
L -3.5 0 
" style="stroke: #1f2933; stroke-width: 0.8"/>
      </defs>
      <g>
       <use xlink:href="#ma240280016" x="44.18375" y="188.183875" style="fill: #1f2933; stroke: #1f2933; stroke-width: 0.8"/>
      </g>
     </g>
     <g id="text_9">
      <text style="fill: #1f2933; font: 8px 'Latin Modern Roman'; text-anchor: end" x="37.18375" y="190.960125" transform="rotate(-0 37.18375 190.960125)">162.5</text>
     </g>
    </g>
    <g id="ytick_2">
     <g id="line2d_17">
      <path d="M 44.18375 165.727922 
L 457.10375 165.727922 
" clip-path="url(#pa56593bf66)" style="fill: none; stroke: #cbd5e1; stroke-opacity: 0.3; stroke-width: 0.6; stroke-linecap: square"/>
     </g>
     <g id="line2d_18">
      <g>
       <use xlink:href="#ma240280016" x="44.18375" y="165.727922" style="fill: #1f2933; stroke: #1f2933; stroke-width: 0.8"/>
      </g>
     </g>
     <g id="text_10">
      <text style="fill: #1f2933; font: 8px 'Latin Modern Roman'; text-anchor: end" x="37.18375" y="168.504172" transform="rotate(-0 37.18375 168.504172)">165.0</text>
     </g>
    </g>
    <g id="ytick_3">
     <g id="line2d_19">
      <path d="M 44.18375 143.271968 
L 457.10375 143.271968 
" clip-path="url(#pa56593bf66)" style="fill: none; stroke: #cbd5e1; stroke-opacity: 0.3; stroke-width: 0.6; stroke-linecap: square"/>
     </g>
     <g id="line2d_20">
      <g>
       <use xlink:href="#ma240280016" x="44.18375" y="143.271968" style="fill: #1f2933; stroke: #1f2933; stroke-width: 0.8"/>
      </g>
     </g>
     <g id="text_11">
      <text style="fill: #1f2933; font: 8px 'Latin Modern Roman'; text-anchor: end" x="37.18375" y="146.048218" transform="rotate(-0 37.18375 146.048218)">167.5</text>
     </g>
    </g>
    <g id="ytick_4">
     <g id="line2d_21">
      <path d="M 44.18375 120.816015 
L 457.10375 120.816015 
" clip-path="url(#pa56593bf66)" style="fill: none; stroke: #cbd5e1; stroke-opacity: 0.3; stroke-width: 0.6; stroke-linecap: square"/>
     </g>
     <g id="line2d_22">
      <g>
       <use xlink:href="#ma240280016" x="44.18375" y="120.816015" style="fill: #1f2933; stroke: #1f2933; stroke-width: 0.8"/>
      </g>
     </g>
     <g id="text_12">
      <text style="fill: #1f2933; font: 8px 'Latin Modern Roman'; text-anchor: end" x="37.18375" y="123.592265" transform="rotate(-0 37.18375 123.592265)">170.0</text>
     </g>
    </g>
    <g id="ytick_5">
     <g id="line2d_23">
      <path d="M 44.18375 98.360062 
L 457.10375 98.360062 
" clip-path="url(#pa56593bf66)" style="fill: none; stroke: #cbd5e1; stroke-opacity: 0.3; stroke-width: 0.6; stroke-linecap: square"/>
     </g>
     <g id="line2d_24">
      <g>
       <use xlink:href="#ma240280016" x="44.18375" y="98.360062" style="fill: #1f2933; stroke: #1f2933; stroke-width: 0.8"/>
      </g>
     </g>
     <g id="text_13">
      <text style="fill: #1f2933; font: 8px 'Latin Modern Roman'; text-anchor: end" x="37.18375" y="101.136312" transform="rotate(-0 37.18375 101.136312)">172.5</text>
     </g>
    </g>
    <g id="ytick_6">
     <g id="line2d_25">
      <path d="M 44.18375 75.904109 
L 457.10375 75.904109 
" clip-path="url(#pa56593bf66)" style="fill: none; stroke: #cbd5e1; stroke-opacity: 0.3; stroke-width: 0.6; stroke-linecap: square"/>
     </g>
     <g id="line2d_26">
      <g>
       <use xlink:href="#ma240280016" x="44.18375" y="75.904109" style="fill: #1f2933; stroke: #1f2933; stroke-width: 0.8"/>
      </g>
     </g>
     <g id="text_14">
      <text style="fill: #1f2933; font: 8px 'Latin Modern Roman'; text-anchor: end" x="37.18375" y="78.680359" transform="rotate(-0 37.18375 78.680359)">175.0</text>
     </g>
    </g>
    <g id="ytick_7">
     <g id="line2d_27">
      <path d="M 44.18375 53.448156 
L 457.10375 53.448156 
" clip-path="url(#pa56593bf66)" style="fill: none; stroke: #cbd5e1; stroke-opacity: 0.3; stroke-width: 0.6; stroke-linecap: square"/>
     </g>
     <g id="line2d_28">
      <g>
       <use xlink:href="#ma240280016" x="44.18375" y="53.448156" style="fill: #1f2933; stroke: #1f2933; stroke-width: 0.8"/>
      </g>
     </g>
     <g id="text_15">
      <text style="fill: #1f2933; font: 8px 'Latin Modern Roman'; text-anchor: end" x="37.18375" y="56.224406" transform="rotate(-0 37.18375 56.224406)">177.5</text>
     </g>
    </g>
    <g id="ytick_8">
     <g id="line2d_29">
      <path d="M 44.18375 30.992203 
L 457.10375 30.992203 
" clip-path="url(#pa56593bf66)" style="fill: none; stroke: #cbd5e1; stroke-opacity: 0.3; stroke-width: 0.6; stroke-linecap: square"/>
     </g>
     <g id="line2d_30">
      <g>
       <use xlink:href="#ma240280016" x="44.18375" y="30.992203" style="fill: #1f2933; stroke: #1f2933; stroke-width: 0.8"/>
      </g>
     </g>
     <g id="text_16">
      <text style="fill: #1f2933; font: 8px 'Latin Modern Roman'; text-anchor: end" x="37.18375" y="33.768453" transform="rotate(-0 37.18375 33.768453)">180.0</text>
     </g>
    </g>
    <g id="ytick_9">
     <g id="line2d_31">
      <path d="M 44.18375 8.53625 
L 457.10375 8.53625 
" clip-path="url(#pa56593bf66)" style="fill: none; stroke: #cbd5e1; stroke-opacity: 0.3; stroke-width: 0.6; stroke-linecap: square"/>
     </g>
     <g id="line2d_32">
      <g>
       <use xlink:href="#ma240280016" x="44.18375" y="8.53625" style="fill: #1f2933; stroke: #1f2933; stroke-width: 0.8"/>
      </g>
     </g>
     <g id="text_17">
      <text style="fill: #1f2933; font: 8px 'Latin Modern Roman'; text-anchor: end" x="37.18375" y="11.3125" transform="rotate(-0 37.18375 11.3125)">182.5</text>
     </g>
    </g>
    <g id="text_18">
     <text style="fill: #1f2933; font: 9.2px 'Latin Modern Roman'; text-anchor: middle" x="12.66" y="99.250339" transform="rotate(-90 12.66 99.250339)">vertical GRF [N]</text>
    </g>
   </g>
   <g id="line2d_33">
    <path d="M 62.952841 153.651417 
L 63.454018 138.116094 
L 63.955196 164.601505 
L 64.456373 180.227831 
L 64.95755 182.410339 
L 65.458728 180.318005 
L 66.461082 173.150159 
L 66.96226 168.848215 
L 67.964614 154.182577 
L 68.966969 143.710348 
L 71.974033 113.281178 
L 72.976387 106.164972 
L 73.978742 100.487504 
L 74.981097 96.07028 
L 75.983451 92.748398 
L 76.985806 90.365649 
L 77.988161 88.775439 
L 78.990515 87.842597 
L 79.99287 87.444673 
L 80.995225 87.472542 
L 81.997579 87.830401 
L 82.999934 88.435336 
L 84.503466 89.65436 
L 87.009353 92.073909 
L 90.016417 94.936856 
L 92.021126 96.573263 
L 94.025835 97.915843 
L 96.030545 98.956579 
L 98.035254 99.717658 
L 100.039963 100.237669 
L 102.54585 100.617539 
L 105.552914 100.791137 
L 109.562332 100.748109 
L 130.61178 100.120036 
L 152.663583 100.07268 
L 339.101548 99.916894 
L 438.334659 99.897754 
L 438.334659 99.897754 
" clip-path="url(#pa56593bf66)" style="fill: none; stroke: #e69f00; stroke-width: 1.35; stroke-linecap: square"/>
   </g>
   <g id="line2d_34">
    <path d="M 62.952841 68.799479 
L 63.454018 61.91744 
L 63.955196 32.291113 
L 64.456373 18.129411 
L 64.95755 16.090339 
L 65.959905 23.440578 
L 66.96226 32.919834 
L 67.964614 48.392731 
L 68.966969 59.133074 
L 71.974033 89.10856 
L 72.976387 96.030753 
L 73.978742 101.556196 
L 74.981097 105.863148 
L 75.983451 109.109286 
L 76.985806 111.442025 
L 77.988161 113.000037 
L 78.990515 113.912286 
L 79.99287 114.296778 
L 80.995225 114.259683 
L 81.997579 113.894971 
L 82.999934 113.284495 
L 84.503466 112.058485 
L 87.009353 109.62943 
L 90.016417 106.758227 
L 92.021126 105.118146 
L 94.025835 103.773083 
L 96.030545 102.730741 
L 98.035254 101.968641 
L 100.039963 101.447968 
L 102.54585 101.067547 
L 105.552914 100.89347 
L 109.562332 100.935953 
L 130.61178 101.56085 
L 152.663583 101.604162 
L 358.146287 101.74883 
L 438.334659 101.761995 
L 438.334659 101.761995 
" clip-path="url(#pa56593bf66)" style="fill: none; stroke: #cc79a7; stroke-width: 1.35; stroke-linecap: square"/>
   </g>
   <g id="patch_3">
    <path d="M 44.18375 190.726339 
L 44.18375 7.774339 
" style="fill: none; stroke: #1f2933; stroke-width: 0.75; stroke-linejoin: miter; stroke-linecap: square"/>
   </g>
   <g id="patch_4">
    <path d="M 44.18375 190.726339 
L 457.10375 190.726339 
" style="fill: none; stroke: #1f2933; stroke-width: 0.75; stroke-linejoin: miter; stroke-linecap: square"/>
   </g>
   <g id="legend_1">
    <g id="line2d_35">
     <path d="M 402.58175 17.524339 
L 409.60175 17.524339 
L 416.62175 17.524339 
" style="fill: none; stroke: #e69f00; stroke-width: 1.35; stroke-linecap: square"/>
    </g>
    <g id="text_19">
     <!-- left $F_z$ -->
     <g transform="translate(422.86175 20.254339)">
      <text>
       <tspan style="font: 7.8px 'Latin Modern Roman'" x="0 2.167526 5.629333 8.015167 11.048141" y="-0.140625">left </tspan>
       <tspan style="font: 7.8px 'cmmi10'" x="13.644501" y="-0.140625">F</tspan>
       <tspan style="font: 5.46px 'cmmi10'" x="18.658401" y="1.1858625000000007">z</tspan>
      </text>
     </g>
    </g>
    <g id="line2d_36">
     <path d="M 402.58175 28.398026 
L 409.60175 28.398026 
L 416.62175 28.398026 
" style="fill: none; stroke: #cc79a7; stroke-width: 1.35; stroke-linecap: square"/>
    </g>
    <g id="text_20">
     <!-- right $F_z$ -->
     <g transform="translate(422.86175 31.128026)">
      <text>
       <tspan style="font: 7.8px 'Latin Modern Roman'" x="0 3.056366 5.223892 9.12233 13.457397 16.490372" y="-0.21875">right </tspan>
       <tspan style="font: 7.8px 'cmmi10'" x="19.086731" y="-0.21875">F</tspan>
       <tspan style="font: 5.46px 'cmmi10'" x="24.100632" y="1.1077375000000007">z</tspan>
      </text>
     </g>
    </g>
   </g>
  </g>
 </g>
 <defs>
  <clipPath id="pa56593bf66">
   <rect x="44.18375" y="7.774339" width="412.92" height="182.952"/>
  </clipPath>
 </defs>
</svg>
