<?xml version="1.0" encoding="utf-8" standalone="no"?>
<!DOCTYPE svg PUBLIC "-//W3C//DTD SVG 1.1//EN"
  "http://www.w3.org/Graphics/SVG/1.1/DTD/svg11.dtd">
<svg xmlns:xlink="http://www.w3.org/1999/xlink" width="274.008pt" height="331.2171pt" viewBox="0 0 274.008 331.2171" xmlns="http://www.w3.org/2000/svg" version="1.1">
 <metadata>
  <rdf:RDF xmlns:dc="http://purl.org/dc/elements/1.1/" xmlns:cc="http://creativecommons.org/ns#" xmlns:rdf="http://www.w3.org/1999/02/22-rdf-syntax-ns#">
   <cc:Work>
    <dc:type rdf:resource="http://purl.org/dc/dcmitype/StillImage"/>
    <dc:date>2026-08-15T18:28:11.439819</dc:date>
    <dc:format>image/svg+xml</dc:format>
    <dc:creator>
     <cc:Agent>
      <dc:title>Matplotlib v3.8.2, https://matplotlib.org/</dc:title>
     </cc:Agent>
    </dc:creator>
   </cc:Work>
  </rdf:RDF>
 </metadata>
 <defs>
  <style type="text/css">*{stroke-linejoin: round; stroke-linecap: butt}</style>
 </defs>
 <g id="figure_1">
  <g id="patch_1">
   <path d="M 0 331.2171 
L 274.008 331.2171 
L 274.008 0 
L 0 0 
z
" style="fill: #ffffff"/>
  </g>
  <g id="axes_1">
   <g id="patch_2">
    <path d="M 250.748 172.9155 
C 250.748 158.241412 247.857525 143.710012 242.241994 130.152923 
C 236.626464 116.595833 228.395087 104.276707 218.01894 93.90056 
C 207.642793 83.524413 195.323667 75.293036 181.766577 69.677506 
C 168.209488 64.061975 153.678088 61.1715 139.004 61.1715 
C 124.329912 61.1715 109.798512 64.061975 96.241423 69.677506 
C 82.684333 75.293036 70.365207 83.524413 59.98906 93.90056 
C 49.612913 104.276707 41.381536 116.595833 35.766006 130.152923 
C 30.150475 143.710012 27.26 158.241412 27.26 172.9155 
C 27.26 187.589588 30.150475 202.120988 35.766006 215.678077 
C 41.381536 229.235167 49.612913 241.554293 59.98906 251.93044 
C 70.365207 262.306587 82.684333 270.537964 96.241423 276.153494 
C 109.798512 281.769025 124.329912 284.6595 139.004 284.6595 
C 153.678088 284.6595 168.209488 281.769025 181.766577 276.153494 
C 195.323667 270.537964 207.642793 262.306587 218.01894 251.93044 
C 228.395087 241.554293 236.626464 229.235167 242.241994 215.678077 
C 247.857525 202.120988 250.748 187.589588 250.748 172.9155 
M 139.004 172.9155 
C 139.004 172.9155 139.004 172.9155 139.004 172.9155 
C 139.004 172.9155 139.004 172.9155 139.004 172.9155 
C 139.004 172.9155 139.004 172.9155 139.004 172.9155 
C 139.004 172.9155 139.004 172.9155 139.004 172.9155 
C 139.004 172.9155 139.004 172.9155 139.004 172.9155 
C 139.004 172.9155 139.004 172.9155 139.004 172.9155 
C 139.004 172.9155 139.004 172.9155 139.004 172.9155 
C 139.004 172.9155 139.004 172.9155 139.004 172.9155 
C 139.004 172.9155 139.004 172.9155 139.004 172.9155 
C 139.004 172.9155 139.004 172.9155 139.004 172.9155 
C 139.004 172.9155 139.004 172.9155 139.004 172.9155 
C 139.004 172.9155 139.004 172.9155 139.004 172.9155 
C 139.004 172.9155 139.004 172.9155 139.004 172.9155 
C 139.004 172.9155 139.004 172.9155 139.004 172.9155 
C 139.004 172.9155 139.004 172.9155 139.004 172.9155 
C 139.004 172.9155 139.004 172.9155 139.004 172.9155 
z
" style="fill: #ffffff"/>
   </g>
   <g id="matplotlib.axis_1">
    <g id="xtick_1">
     <g id="line2d_1">
      <path d="M 139.004 172.9155 
L 250.748 172.9155 
" clip-path="url(#pf4ccd4cac8)" style="fill: none; stroke: #cbd5e1; stroke-opacity: 0.42; stroke-width: 0.55; stroke-linecap: square"/>
     </g>
     <g id="text_1">
      <text style="fill: #1f2933; font: 8px 'Latin Modern Roman'; text-anchor: middle" x="264.748" y="174.9155" transform="rotate(-0 264.748 174.9155)">0°</text>
     </g>
    </g>
    <g id="xtick_2">
     <g id="line2d_2">
      <path d="M 139.004 172.9155 
L 218.01894 93.90056 
" clip-path="url(#pf4ccd4cac8)" style="fill: none; stroke: #cbd5e1; stroke-opacity: 0.42; stroke-width: 0.55; stroke-linecap: square"/>
     </g>
     <g id="text_2">
      <text style="fill: #1f2933; font: 8px 'Latin Modern Roman'; text-anchor: middle" x="227.918435" y="86.001065" transform="rotate(-0 227.918435 86.001065)">45°</text>
     </g>
    </g>
    <g id="xtick_3">
     <g id="line2d_3">
      <path d="M 139.004 172.9155 
L 139.004 61.1715 
" clip-path="url(#pf4ccd4cac8)" style="fill: none; stroke: #cbd5e1; stroke-opacity: 0.42; stroke-width: 0.55; stroke-linecap: square"/>
     </g>
     <g id="text_3">
      <text style="fill: #1f2933; font: 8px 'Latin Modern Roman'; text-anchor: middle" x="139.004" y="49.1715" transform="rotate(-0 139.004 49.1715)">90°</text>
     </g>
    </g>
    <g id="xtick_4">
     <g id="line2d_4">
      <path d="M 139.004 172.9155 
L 59.98906 93.90056 
" clip-path="url(#pf4ccd4cac8)" style="fill: none; stroke: #cbd5e1; stroke-opacity: 0.42; stroke-width: 0.55; stroke-linecap: square"/>
     </g>
     <g id="text_4">
      <text style="fill: #1f2933; font: 8px 'Latin Modern Roman'; text-anchor: middle" x="50.089565" y="86.001065" transform="rotate(-0 50.089565 86.001065)">135°</text>
     </g>
    </g>
    <g id="xtick_5">
     <g id="line2d_5">
      <path d="M 139.004 172.9155 
L 27.26 172.9155 
" clip-path="url(#pf4ccd4cac8)" style="fill: none; stroke: #cbd5e1; stroke-opacity: 0.42; stroke-width: 0.55; stroke-linecap: square"/>
     </g>
     <g id="text_5">
      <text style="fill: #1f2933; font: 8px 'Latin Modern Roman'; text-anchor: middle" x="13.26" y="174.9155" transform="rotate(-0 13.26 174.9155)">180°</text>
     </g>
    </g>
    <g id="xtick_6">
     <g id="line2d_6">
      <path d="M 139.004 172.9155 
L 59.98906 251.93044 
" clip-path="url(#pf4ccd4cac8)" style="fill: none; stroke: #cbd5e1; stroke-opacity: 0.42; stroke-width: 0.55; stroke-linecap: square"/>
     </g>
     <g id="text_6">
      <text style="fill: #1f2933; font: 8px 'Latin Modern Roman'; text-anchor: middle" x="50.089565" y="263.829935" transform="rotate(-0 50.089565 263.829935)">225°</text>
     </g>
    </g>
    <g id="xtick_7">
     <g id="line2d_7">
      <path d="M 139.004 172.9155 
L 139.004 284.6595 
" clip-path="url(#pf4ccd4cac8)" style="fill: none; stroke: #cbd5e1; stroke-opacity: 0.42; stroke-width: 0.55; stroke-linecap: square"/>
     </g>
     <g id="text_7">
      <text style="fill: #1f2933; font: 8px 'Latin Modern Roman'; text-anchor: middle" x="139.004" y="300.6595" transform="rotate(-0 139.004 300.6595)">270°</text>
     </g>
    </g>
    <g id="xtick_8">
     <g id="line2d_8">
      <path d="M 139.004 172.9155 
L 218.01894 251.93044 
" clip-path="url(#pf4ccd4cac8)" style="fill: none; stroke: #cbd5e1; stroke-opacity: 0.42; stroke-width: 0.55; stroke-linecap: square"/>
     </g>
     <g id="text_8">
      <text style="fill: #1f2933; font: 8px 'Latin Modern Roman'; text-anchor: middle" x="227.918435" y="263.829935" transform="rotate(-0 227.918435 263.829935)">315°</text>
     </g>
    </g>
   </g>
   <g id="matplotlib.axis_2">
    <g id="ytick_1">
     <g id="line2d_9">
      <path d="M 165.296706 172.9155 
C 165.296706 169.462773 164.616594 166.04362 163.295293 162.853717 
C 161.973992 159.663814 160.037197 156.765196 157.595751 154.323749 
C 155.154304 151.882303 152.255686 149.945508 149.065783 148.624207 
C 145.87588 147.302906 142.456727 146.622794 139.004 146.622794 
C 135.551273 146.622794 132.13212 147.302906 128.942217 148.624207 
C 125.752314 149.945508 122.853696 151.882303 120.412249 154.323749 
C 117.970803 156.765196 116.034008 159.663814 114.712707 162.853717 
C 113.391406 166.04362 112.711294 169.462773 112.711294 172.9155 
C 112.711294 176.368227 113.391406 179.78738 114.712707 182.977283 
C 116.034008 186.167186 117.970803 189.065804 120.412249 191.507251 
C 122.853696 193.948697 125.752314 195.885492 128.942217 197.206793 
C 132.13212 198.528094 135.551273 199.208206 139.004 199.208206 
C 142.456727 199.208206 145.87588 198.528094 149.065783 197.206793 
C 152.255686 195.885492 155.154304 193.948697 157.595751 191.507251 
C 160.037197 189.065804 161.973992 186.167186 163.295293 182.977283 
C 164.616594 179.78738 165.296706 176.368227 165.296706 172.9155 
" clip-path="url(#pf4ccd4cac8)" style="fill: none; stroke: #cbd5e1; stroke-opacity: 0.42; stroke-width: 0.55; stroke-linecap: square"/>
     </g>
     <g id="text_9">
      <text style="fill: #1f2933; font: 8px 'Latin Modern Roman'; text-anchor: start" x="130.879107" y="146.357151" transform="rotate(-0 130.879107 146.357151)">20</text>
     </g>
    </g>
    <g id="ytick_2">
     <g id="line2d_10">
      <path d="M 191.589412 172.9155 
C 191.589412 166.010047 190.229188 159.171741 187.586586 152.791934 
C 184.943983 146.412127 181.070394 140.614891 176.187501 135.731999 
C 171.304609 130.849106 165.507373 126.975517 159.127566 124.332914 
C 152.747759 121.690312 145.909453 120.330088 139.004 120.330088 
C 132.098547 120.330088 125.260241 121.690312 118.880434 124.332914 
C 112.500627 126.975517 106.703391 130.849106 101.820499 135.731999 
C 96.937606 140.614891 93.064017 146.412127 90.421414 152.791934 
C 87.778812 159.171741 86.418588 166.010047 86.418588 172.9155 
C 86.418588 179.820953 87.778812 186.659259 90.421414 193.039066 
C 93.064017 199.418873 96.937606 205.216109 101.820499 210.099001 
C 106.703391 214.981894 112.500627 218.855483 118.880434 221.498086 
C 125.260241 224.140688 132.098547 225.500912 139.004 225.500912 
C 145.909453 225.500912 152.747759 224.140688 159.127566 221.498086 
C 165.507373 218.855483 171.304609 214.981894 176.187501 210.099001 
C 181.070394 205.216109 184.943983 199.418873 187.586586 193.039066 
C 190.229188 186.659259 191.589412 179.820953 191.589412 172.9155 
" clip-path="url(#pf4ccd4cac8)" style="fill: none; stroke: #cbd5e1; stroke-opacity: 0.42; stroke-width: 0.55; stroke-linecap: square"/>
     </g>
     <g id="text_10">
      <text style="fill: #1f2933; font: 8px 'Latin Modern Roman'; text-anchor: start" x="122.754214" y="121.351301" transform="rotate(-0 122.754214 121.351301)">40</text>
     </g>
    </g>
    <g id="ytick_3">
     <g id="line2d_11">
      <path d="M 217.882118 172.9155 
C 217.882118 162.55732 215.841782 152.299861 211.877878 142.730151 
C 207.913975 133.160441 202.103591 124.464587 194.779252 117.140248 
C 187.454913 109.815909 178.759059 104.005525 169.189349 100.041622 
C 159.619639 96.077718 149.36218 94.037382 139.004 94.037382 
C 128.64582 94.037382 118.388361 96.077718 108.818651 100.041622 
C 99.248941 104.005525 90.553087 109.815909 83.228748 117.140248 
C 75.904409 124.464587 70.094025 133.160441 66.130122 142.730151 
C 62.166218 152.299861 60.125882 162.55732 60.125882 172.9155 
C 60.125882 183.27368 62.166218 193.531139 66.130122 203.100849 
C 70.094025 212.670559 75.904409 221.366413 83.228748 228.690752 
C 90.553087 236.015091 99.248941 241.825475 108.818651 245.789378 
C 118.388361 249.753282 128.64582 251.793618 139.004 251.793618 
C 149.36218 251.793618 159.619639 249.753282 169.189349 245.789378 
C 178.759059 241.825475 187.454913 236.015091 194.779252 228.690752 
C 202.103591 221.366413 207.913975 212.670559 211.877878 203.100849 
C 215.841782 193.531139 217.882118 183.27368 217.882118 172.9155 
" clip-path="url(#pf4ccd4cac8)" style="fill: none; stroke: #cbd5e1; stroke-opacity: 0.42; stroke-width: 0.55; stroke-linecap: square"/>
     </g>
     <g id="text_11">
      <text style="fill: #1f2933; font: 8px 'Latin Modern Roman'; text-anchor: start" x="114.629321" y="96.345452" transform="rotate(-0 114.629321 96.345452)">60</text>
     </g>
    </g>
    <g id="ytick_4">
     <g id="line2d_12">
      <path d="M 244.174824 172.9155 
C 244.174824 159.104594 241.454376 145.427982 236.169171 132.668368 
C 230.883966 119.908755 223.136788 108.314283 213.371003 98.548497 
C 203.605217 88.782712 192.010745 81.035534 179.251132 75.750329 
C 166.491518 70.465124 152.814906 67.744676 139.004 67.744676 
C 125.193094 67.744676 111.516482 70.465124 98.756868 75.750329 
C 85.997255 81.035534 74.402783 88.782712 64.636997 98.548497 
C 54.871212 108.314283 47.124034 119.908755 41.838829 132.668368 
C 36.553624 145.427982 33.833176 159.104594 33.833176 172.9155 
C 33.833176 186.726406 36.553624 200.403018 41.838829 213.162632 
C 47.124034 225.922245 54.871212 237.516717 64.636997 247.282503 
C 74.402783 257.048288 85.997255 264.795466 98.756868 270.080671 
C 111.516482 275.365876 125.193094 278.086324 139.004 278.086324 
C 152.814906 278.086324 166.491518 275.365876 179.251132 270.080671 
C 192.010745 264.795466 203.605217 257.048288 213.371003 247.282503 
C 223.136788 237.516717 230.883966 225.922245 236.169171 213.162632 
C 241.454376 200.403018 244.174824 186.726406 244.174824 172.9155 
" clip-path="url(#pf4ccd4cac8)" style="fill: none; stroke: #cbd5e1; stroke-opacity: 0.42; stroke-width: 0.55; stroke-linecap: square"/>
     </g>
     <g id="text_12">
      <text style="fill: #1f2933; font: 8px 'Latin Modern Roman'; text-anchor: start" x="106.504428" y="71.339603" transform="rotate(-0 106.504428 71.339603)">80</text>
     </g>
    </g>
   </g>
   <g id="line2d_13">
    <path d="M 152.150353 172.9155 
L 151.702402 169.512973 
L 150.389076 166.342324 
L 148.299875 163.619625 
L 145.577176 161.530424 
L 145.809053 147.518696 
L 139.004 146.622794 
L 132.198947 147.518696 
L 125.857647 150.145349 
L 129.708125 163.619625 
L 127.618924 166.342324 
L 126.305598 169.512973 
L 125.857647 172.9155 
L 126.305598 176.318027 
L 127.618924 179.488676 
L 129.708125 182.211375 
L 125.857647 195.685651 
L 132.198947 198.312304 
L 139.004 199.208206 
L 145.809053 198.312304 
L 145.577176 184.300576 
L 148.299875 182.211375 
L 150.389076 179.488676 
L 151.702402 176.318027 
L 152.150353 172.9155 
" clip-path="url(#pf4ccd4cac8)" style="fill: none; stroke: #5b6770; stroke-width: 1.55; stroke-linecap: square"/>
    <defs>
     <path id="m5f43109949" d="M 0 1.5 
C 0.397805 1.5 0.77937 1.341951 1.06066 1.06066 
C 1.341951 0.77937 1.5 0.397805 1.5 0 
C 1.5 -0.397805 1.341951 -0.77937 1.06066 -1.06066 
C 0.77937 -1.341951 0.397805 -1.5 0 -1.5 
C -0.397805 -1.5 -0.77937 -1.341951 -1.06066 -1.06066 
C -1.341951 -0.77937 -1.5 -0.397805 -1.5 0 
C -1.5 0.397805 -1.341951 0.77937 -1.06066 1.06066 
C -0.77937 1.341951 -0.397805 1.5 0 1.5 
z
" style="stroke: #5b6770"/>
    </defs>
    <g clip-path="url(#pf4ccd4cac8)">
     <use xlink:href="#m5f43109949" x="152.150353" y="172.9155" style="fill: #5b6770; stroke: #5b6770"/>
     <use xlink:href="#m5f43109949" x="151.702402" y="169.512973" style="fill: #5b6770; stroke: #5b6770"/>
     <use xlink:href="#m5f43109949" x="150.389076" y="166.342324" style="fill: #5b6770; stroke: #5b6770"/>
     <use xlink:href="#m5f43109949" x="148.299875" y="163.619625" style="fill: #5b6770; stroke: #5b6770"/>
     <use xlink:href="#m5f43109949" x="145.577176" y="161.530424" style="fill: #5b6770; stroke: #5b6770"/>
     <use xlink:href="#m5f43109949" x="145.809053" y="147.518696" style="fill: #5b6770; stroke: #5b6770"/>
     <use xlink:href="#m5f43109949" x="139.004" y="146.622794" style="fill: #5b6770; stroke: #5b6770"/>
     <use xlink:href="#m5f43109949" x="132.198947" y="147.518696" style="fill: #5b6770; stroke: #5b6770"/>
     <use xlink:href="#m5f43109949" x="125.857647" y="150.145349" style="fill: #5b6770; stroke: #5b6770"/>
     <use xlink:href="#m5f43109949" x="129.708125" y="163.619625" style="fill: #5b6770; stroke: #5b6770"/>
     <use xlink:href="#m5f43109949" x="127.618924" y="166.342324" style="fill: #5b6770; stroke: #5b6770"/>
     <use xlink:href="#m5f43109949" x="126.305598" y="169.512973" style="fill: #5b6770; stroke: #5b6770"/>
     <use xlink:href="#m5f43109949" x="125.857647" y="172.9155" style="fill: #5b6770; stroke: #5b6770"/>
     <use xlink:href="#m5f43109949" x="126.305598" y="176.318027" style="fill: #5b6770; stroke: #5b6770"/>
     <use xlink:href="#m5f43109949" x="127.618924" y="179.488676" style="fill: #5b6770; stroke: #5b6770"/>
     <use xlink:href="#m5f43109949" x="129.708125" y="182.211375" style="fill: #5b6770; stroke: #5b6770"/>
     <use xlink:href="#m5f43109949" x="125.857647" y="195.685651" style="fill: #5b6770; stroke: #5b6770"/>
     <use xlink:href="#m5f43109949" x="132.198947" y="198.312304" style="fill: #5b6770; stroke: #5b6770"/>
     <use xlink:href="#m5f43109949" x="139.004" y="199.208206" style="fill: #5b6770; stroke: #5b6770"/>
     <use xlink:href="#m5f43109949" x="145.809053" y="198.312304" style="fill: #5b6770; stroke: #5b6770"/>
     <use xlink:href="#m5f43109949" x="145.577176" y="184.300576" style="fill: #5b6770; stroke: #5b6770"/>
     <use xlink:href="#m5f43109949" x="148.299875" y="182.211375" style="fill: #5b6770; stroke: #5b6770"/>
     <use xlink:href="#m5f43109949" x="150.389076" y="179.488676" style="fill: #5b6770; stroke: #5b6770"/>
     <use xlink:href="#m5f43109949" x="151.702402" y="176.318027" style="fill: #5b6770; stroke: #5b6770"/>
     <use xlink:href="#m5f43109949" x="152.150353" y="172.9155" style="fill: #5b6770; stroke: #5b6770"/>
    </g>
   </g>
   <g id="line2d_14">
    <path d="M 231.028471 172.9155 
L 227.892813 149.097814 
L 230.084605 120.330088 
L 213.371003 98.548497 
L 191.589412 81.834895 
L 162.821686 84.026687 
L 139.004 94.037382 
L 115.186314 84.026687 
L 99.564941 104.605046 
L 101.820499 135.731999 
L 93.463698 146.622794 
L 100.908795 162.70792 
L 99.564941 172.9155 
L 100.908795 183.12308 
L 93.463698 199.208206 
L 101.820499 210.099001 
L 99.564941 241.225954 
L 115.186314 261.804313 
L 139.004 251.793618 
L 162.821686 261.804313 
L 191.589412 263.996105 
L 213.371003 247.282503 
L 230.084605 225.500912 
L 227.892813 196.733186 
L 231.028471 172.9155 
" clip-path="url(#pf4ccd4cac8)" style="fill: none; stroke: #0072b2; stroke-width: 1.55; stroke-linecap: square"/>
    <defs>
     <path id="m3aa6a91058" d="M 0 1.5 
C 0.397805 1.5 0.77937 1.341951 1.06066 1.06066 
C 1.341951 0.77937 1.5 0.397805 1.5 0 
C 1.5 -0.397805 1.341951 -0.77937 1.06066 -1.06066 
C 0.77937 -1.341951 0.397805 -1.5 0 -1.5 
C -0.397805 -1.5 -0.77937 -1.341951 -1.06066 -1.06066 
C -1.341951 -0.77937 -1.5 -0.397805 -1.5 0 
C -1.5 0.397805 -1.341951 0.77937 -1.06066 1.06066 
C -0.77937 1.341951 -0.397805 1.5 0 1.5 
z
" style="stroke: #0072b2"/>
    </defs>
    <g clip-path="url(#pf4ccd4cac8)">
     <use xlink:href="#m3aa6a91058" x="231.028471" y="172.9155" style="fill: #0072b2; stroke: #0072b2"/>
     <use xlink:href="#m3aa6a91058" x="227.892813" y="149.097814" style="fill: #0072b2; stroke: #0072b2"/>
     <use xlink:href="#m3aa6a91058" x="230.084605" y="120.330088" style="fill: #0072b2; stroke: #0072b2"/>
     <use xlink:href="#m3aa6a91058" x="213.371003" y="98.548497" style="fill: #0072b2; stroke: #0072b2"/>
     <use xlink:href="#m3aa6a91058" x="191.589412" y="81.834895" style="fill: #0072b2; stroke: #0072b2"/>
     <use xlink:href="#m3aa6a91058" x="162.821686" y="84.026687" style="fill: #0072b2; stroke: #0072b2"/>
     <use xlink:href="#m3aa6a91058" x="139.004" y="94.037382" style="fill: #0072b2; stroke: #0072b2"/>
     <use xlink:href="#m3aa6a91058" x="115.186314" y="84.026687" style="fill: #0072b2; stroke: #0072b2"/>
     <use xlink:href="#m3aa6a91058" x="99.564941" y="104.605046" style="fill: #0072b2; stroke: #0072b2"/>
     <use xlink:href="#m3aa6a91058" x="101.820499" y="135.731999" style="fill: #0072b2; stroke: #0072b2"/>
     <use xlink:href="#m3aa6a91058" x="93.463698" y="146.622794" style="fill: #0072b2; stroke: #0072b2"/>
     <use xlink:href="#m3aa6a91058" x="100.908795" y="162.70792" style="fill: #0072b2; stroke: #0072b2"/>
     <use xlink:href="#m3aa6a91058" x="99.564941" y="172.9155" style="fill: #0072b2; stroke: #0072b2"/>
     <use xlink:href="#m3aa6a91058" x="100.908795" y="183.12308" style="fill: #0072b2; stroke: #0072b2"/>
     <use xlink:href="#m3aa6a91058" x="93.463698" y="199.208206" style="fill: #0072b2; stroke: #0072b2"/>
     <use xlink:href="#m3aa6a91058" x="101.820499" y="210.099001" style="fill: #0072b2; stroke: #0072b2"/>
     <use xlink:href="#m3aa6a91058" x="99.564941" y="241.225954" style="fill: #0072b2; stroke: #0072b2"/>
     <use xlink:href="#m3aa6a91058" x="115.186314" y="261.804313" style="fill: #0072b2; stroke: #0072b2"/>
     <use xlink:href="#m3aa6a91058" x="139.004" y="251.793618" style="fill: #0072b2; stroke: #0072b2"/>
     <use xlink:href="#m3aa6a91058" x="162.821686" y="261.804313" style="fill: #0072b2; stroke: #0072b2"/>
     <use xlink:href="#m3aa6a91058" x="191.589412" y="263.996105" style="fill: #0072b2; stroke: #0072b2"/>
     <use xlink:href="#m3aa6a91058" x="213.371003" y="247.282503" style="fill: #0072b2; stroke: #0072b2"/>
     <use xlink:href="#m3aa6a91058" x="230.084605" y="225.500912" style="fill: #0072b2; stroke: #0072b2"/>
     <use xlink:href="#m3aa6a91058" x="227.892813" y="196.733186" style="fill: #0072b2; stroke: #0072b2"/>
     <use xlink:href="#m3aa6a91058" x="231.028471" y="172.9155" style="fill: #0072b2; stroke: #0072b2"/>
    </g>
   </g>
   <g id="patch_3">
    <path d="M 250.748 172.9155 
C 250.748 158.241412 247.857525 143.710012 242.241994 130.152923 
C 236.626464 116.595833 228.395087 104.276707 218.01894 93.90056 
C 207.642793 83.524413 195.323667 75.293036 181.766577 69.677506 
C 168.209488 64.061975 153.678088 61.1715 139.004 61.1715 
C 124.329912 61.1715 109.798512 64.061975 96.241423 69.677506 
C 82.684333 75.293036 70.365207 83.524413 59.98906 93.90056 
C 49.612913 104.276707 41.381536 116.595833 35.766006 130.152923 
C 30.150475 143.710012 27.26 158.241412 27.26 172.9155 
C 27.26 187.589588 30.150475 202.120988 35.766006 215.678077 
C 41.381536 229.235167 49.612913 241.554293 59.98906 251.93044 
C 70.365207 262.306587 82.684333 270.537964 96.241423 276.153494 
C 109.798512 281.769025 124.329912 284.6595 139.004 284.6595 
C 153.678088 284.6595 168.209488 281.769025 181.766577 276.153494 
C 195.323667 270.537964 207.642793 262.306587 218.01894 251.93044 
C 228.395087 241.554293 236.626464 229.235167 242.241994 215.678077 
C 247.857525 202.120988 250.748 187.589588 250.748 172.9155 
" style="fill: none; stroke: #1f2933; stroke-width: 0.75; stroke-linejoin: miter; stroke-linecap: square"/>
   </g>
   <g id="legend_1">
    <g id="line2d_15">
     <path d="M 84.595344 317.6571 
L 91.615344 317.6571 
L 98.635344 317.6571 
" style="fill: none; stroke: #5b6770; stroke-width: 1.55; stroke-linecap: square"/>
     <g>
      <use xlink:href="#m5f43109949" x="91.615344" y="317.6571" style="fill: #5b6770; stroke: #5b6770"/>
     </g>
    </g>
    <g id="text_13">
     <text style="font: 7.8px 'Latin Modern Roman'; text-anchor: start" x="104.875344" y="320.3871" transform="rotate(-0 104.875344 320.3871)">PD</text>
    </g>
    <g id="line2d_16">
     <path d="M 131.746344 317.6571 
L 138.766344 317.6571 
L 145.786344 317.6571 
" style="fill: none; stroke: #0072b2; stroke-width: 1.55; stroke-linecap: square"/>
     <g>
      <use xlink:href="#m3aa6a91058" x="138.766344" y="317.6571" style="fill: #0072b2; stroke: #0072b2"/>
     </g>
    </g>
    <g id="text_14">
     <text style="font: 7.8px 'Latin Modern Roman'; text-anchor: start" x="152.026344" y="320.3871" transform="rotate(-0 152.026344 320.3871)">SE(3) WBC</text>
    </g>
   </g>
  </g>
  <g id="text_15">
   <text style="font: 10.5px 'Latin Modern Roman'; text-anchor: middle" x="139.004" y="13.1625" transform="rotate(-0 139.004 13.1625)">Sampled measured recovery envelope</text>
  </g>
  <g id="text_16">
   <text style="fill: #64748b; font: 7.8px 'Latin Modern Roman'; text-anchor: middle" x="139.004" y="26.4555" transform="rotate(-0 139.004 26.4555)">largest recovered tested push [N] by direction; not a continuous boundary</text>
  </g>
 </g>
 <defs>
  <clipPath id="pf4ccd4cac8">
   <path d="M 250.748 172.9155 
C 250.748 158.241412 247.857525 143.710012 242.241994 130.152923 
C 236.626464 116.595833 228.395087 104.276707 218.01894 93.90056 
C 207.642793 83.524413 195.323667 75.293036 181.766577 69.677506 
C 168.209488 64.061975 153.678088 61.1715 139.004 61.1715 
C 124.329912 61.1715 109.798512 64.061975 96.241423 69.677506 
C 82.684333 75.293036 70.365207 83.524413 59.98906 93.90056 
C 49.612913 104.276707 41.381536 116.595833 35.766006 130.152923 
C 30.150475 143.710012 27.26 158.241412 27.26 172.9155 
C 27.26 187.589588 30.150475 202.120988 35.766006 215.678077 
C 41.381536 229.235167 49.612913 241.554293 59.98906 251.93044 
C 70.365207 262.306587 82.684333 270.537964 96.241423 276.153494 
C 109.798512 281.769025 124.329912 284.6595 139.004 284.6595 
C 153.678088 284.6595 168.209488 281.769025 181.766577 276.153494 
C 195.323667 270.537964 207.642793 262.306587 218.01894 251.93044 
C 228.395087 241.554293 236.626464 229.235167 242.241994 215.678077 
C 247.857525 202.120988 250.748 187.589588 250.748 172.9155 
M 139.004 172.9155 
C 139.004 172.9155 139.004 172.9155 139.004 172.9155 
C 139.004 172.9155 139.004 172.9155 139.004 172.9155 
C 139.004 172.9155 139.004 172.9155 139.004 172.9155 
C 139.004 172.9155 139.004 172.9155 139.004 172.9155 
C 139.004 172.9155 139.004 172.9155 139.004 172.9155 
C 139.004 172.9155 139.004 172.9155 139.004 172.9155 
C 139.004 172.9155 139.004 172.9155 139.004 172.9155 
C 139.004 172.9155 139.004 172.9155 139.004 172.9155 
C 139.004 172.9155 139.004 172.9155 139.004 172.9155 
C 139.004 172.9155 139.004 172.9155 139.004 172.9155 
C 139.004 172.9155 139.004 172.9155 139.004 172.9155 
C 139.004 172.9155 139.004 172.9155 139.004 172.9155 
C 139.004 172.9155 139.004 172.9155 139.004 172.9155 
C 139.004 172.9155 139.004 172.9155 139.004 172.9155 
C 139.004 172.9155 139.004 172.9155 139.004 172.9155 
C 139.004 172.9155 139.004 172.9155 139.004 172.9155 
z
"/>
  </clipPath>
 </defs>
</svg>
